<?xml version="1.0" encoding="UTF-8"?>
<svg width="15px" height="15px" viewBox="0 0 15 15" version="1.1" xmlns="http://www.w3.org/2000/svg" xmlns:xlink="http://www.w3.org/1999/xlink">
    <title>Group</title>
    <g id="Page-1" stroke="none" stroke-width="1" fill="none" fill-rule="evenodd">
        <g id="Group" transform="translate(0.500000, 0.766900)">
            <path d="M6.882,0 C3.08102437,0 0,3.08069089 0,6.881 C0,10.6821424 3.08085763,13.763 6.882,13.763 C10.6824756,13.763 13.764,10.6818091 13.764,6.881 C13.764,3.08102409 10.6823089,0 6.882,0 Z M6.882,1 C10.1300726,1 12.764,3.6333573 12.764,6.881 C12.764,10.1295002 10.1302151,12.763 6.882,12.763 C3.63314237,12.763 1,10.1298576 1,6.881 C1,3.63299987 3.63328489,1 6.882,1 Z" id="Stroke-81" fill="#468CD2" fill-rule="nonzero"></path>
            <path d="M9.3691,6.527 L6.5271,9.368 C5.9381,9.957 4.9831,9.957 4.3941,9.368 C3.8061,8.779 3.8061,7.824 4.3941,7.235 L7.2361,4.394 C7.8251,3.805 8.7801,3.805 9.3691,4.394 C9.9581,4.983 9.9581,5.938 9.3691,6.527" id="Fill-82" fill="#FFFFFF"></path>
            <path d="M9.3691,6.527 L6.5271,9.368 C5.9381,9.957 4.9831,9.957 4.3941,9.368 C3.8061,8.779 3.8061,7.824 4.3941,7.235 L7.2361,4.394 C7.8251,3.805 8.7801,3.805 9.3691,4.394 C9.9581,4.983 9.9581,5.938 9.3691,6.527 Z" id="Stroke-83" stroke="#468CD2"></path>
            <path d="M7.9482,7.9474 L6.5272,9.3684 C5.9382,9.9574 4.9832,9.9574 4.3942,9.3684 C3.8052,8.7794 3.8052,7.8244 4.3942,7.2354 L5.8152,5.8144 L7.9482,7.9474 Z" id="Fill-84" fill="#468CD2"></path>
            <path d="M7.9482,7.9474 L6.5272,9.3684 C5.9382,9.9574 4.9832,9.9574 4.3942,9.3684 C3.8052,8.7794 3.8052,7.8244 4.3942,7.2354 L5.8152,5.8144 L7.9482,7.9474 Z" id="Stroke-85" stroke="#468CD2"></path>
        </g>
    </g>
</svg>