<?xml version="1.0" encoding="UTF-8"?>
<svg width="60px" height="60px" viewBox="0 0 60 60" version="1.1" xmlns="http://www.w3.org/2000/svg" xmlns:xlink="http://www.w3.org/1999/xlink">
    <title>Group 10</title>
    <defs>
        <polygon id="path-1" points="0 0 60 0 60 60 0 60"></polygon>
    </defs>
    <g id="オンライン服薬指導（共通）" stroke="none" stroke-width="1" fill="none" fill-rule="evenodd">
        <g id="MPP-SRA-D-2.ビデオ通話テスト画面1" transform="translate(-120.000000, -688.000000)">
            <g id="Group-10" transform="translate(120.000000, 688.000000)">
                <path d="M59.856326,29.9999713 C59.856326,46.4892072 46.4890737,59.8564979 29.9998851,59.8564979 C13.5106966,59.8564979 0.143444193,46.4892072 0.143444193,29.9999713 C0.143444193,13.5107354 13.5106966,0.143731838 29.9998851,0.143731838 C46.4890737,0.143731838 59.856326,13.5107354 59.856326,29.9999713" id="Fill-1" fill="#468CD2"></path>
                <g id="Group-5">
                    <mask id="mask-2" fill="white">
                        <use xlink:href="#path-1"></use>
                    </mask>
                    <g id="Clip-4"></g>
                    <path d="M29.9999426,0.28723389 C13.6161685,0.28723389 0.287118172,13.6160353 0.287118172,30.0001436 C0.287118172,46.3836775 13.6161685,59.7127661 29.9999426,59.7127661 C46.3837166,59.7127661 59.7127669,46.3836775 59.7127669,30.0001436 C59.7127669,13.6160353 46.3837166,0.28723389 29.9999426,0.28723389 M29.9999426,60 C13.4579031,60 -0.000114893226,46.5419433 -0.000114893226,30.0001436 C-0.000114893226,13.4580567 13.4579031,0 29.9999426,0 C46.541982,0 60,13.4580567 60,30.0001436 C60,46.5419433 46.541982,60 29.9999426,60" id="Fill-3" fill="#468CD2" mask="url(#mask-2)"></path>
                </g>
                <path d="M29.9999426,46.1989573 C21.4268973,46.1989573 14.4520168,39.2240568 14.4520168,30.6506997 C14.4520168,22.0773425 21.4268973,15.1027292 29.9999426,15.1027292 C31.3186296,15.1027292 32.387711,16.1718137 32.387711,17.4905045 C32.387711,18.8091953 31.3186296,19.8779926 29.9999426,19.8779926 C24.0599628,19.8779926 19.2272665,24.7104156 19.2272665,30.6506997 C19.2272665,36.5909837 24.0599628,41.4236939 29.9999426,41.4236939 C35.9402096,41.4236939 40.7726186,36.5909837 40.7726186,30.6506997 C40.7726186,29.3320089 41.8417001,28.2632116 43.1603871,28.2632116 C44.4790741,28.2632116 45.5478683,29.3320089 45.5478683,30.6506997 C45.5478683,39.2240568 38.5732751,46.1989573 29.9999426,46.1989573" id="Fill-6" fill="#FFFFFF"></path>
                <polygon id="Fill-8" fill="#FFFFFF" points="28.2873441 25.661447 42.6673803 17.4905045 28.2873441 9.31927483"></polygon>
            </g>
        </g>
    </g>
</svg>