<?xml version="1.0" encoding="UTF-8"?>
<svg width="60px" height="60px" viewBox="0 0 60 60" version="1.1" xmlns="http://www.w3.org/2000/svg" xmlns:xlink="http://www.w3.org/1999/xlink">
    <title>Group 6</title>
    <defs>
        <polygon id="path-1" points="0 0 60 0 60 60 0 60"></polygon>
    </defs>
    <g id="オンライン服薬指導（共通）" stroke="none" stroke-width="1" fill="none" fill-rule="evenodd">
        <g id="MPP-SRA-D-2.ビデオ通話テスト画面1" transform="translate(-35.000000, -688.000000)">
            <g id="Group-6" transform="translate(35.000000, 688.000000)">
                <g id="Group-3">
                    <mask id="mask-2" fill="white">
                        <use xlink:href="#path-1"></use>
                    </mask>
                    <g id="Clip-2"></g>
                    <path d="M60,29.9998846 C60,46.5684539 46.5684479,60.0000577 29.9999423,60.0000577 C13.4314367,60.0000577 -0.00011544589,46.5684539 -0.00011544589,29.9998846 C-0.00011544589,13.4313152 13.4314367,0 29.9999423,0 C46.5684479,0 60,13.4313152 60,29.9998846" id="Fill-1" fill="#EF6666" mask="url(#mask-2)"></path>
                </g>
                <path d="M34.5789628,29.4827586 L44.6758243,19.3857763 C45.7976659,18.2642085 45.7976659,16.4455741 44.6761115,15.3237191 C43.5542699,14.2030129 41.7359445,14.2024385 40.6143901,15.3237191 L30.5172414,25.4209886 L20.4200927,15.3237191 C19.2985383,14.2024385 17.4799256,14.2024385 16.3583713,15.3237191 C15.2368169,16.4455741 15.2368169,18.2642085 16.3586585,19.3857763 L26.45552,29.4827586 L16.3586585,39.579741 C15.2368169,40.7013088 15.2368169,42.5199432 16.3583713,43.6417982 C16.9192921,44.2021513 17.654262,44.4827586 18.389232,44.4827586 C19.1242019,44.4827586 19.8594591,44.2021513 20.4200927,43.6417982 L30.5172414,33.5445286 L40.6143901,43.6417982 C41.1750237,44.2021513 41.9099936,44.4827586 42.6449636,44.4827586 C43.3802207,44.4827586 44.1151907,44.2021513 44.6761115,43.6417982 C45.7976659,42.5199432 45.7976659,40.7013088 44.6758243,39.579741 L34.5789628,29.4827586 Z" id="Fill-4" fill="#FFFFFF"></path>
            </g>
        </g>
    </g>
</svg>