<?xml version="1.0" encoding="UTF-8"?>
<svg width="34px" height="34px" viewBox="0 0 34 34" version="1.1" xmlns="http://www.w3.org/2000/svg" xmlns:xlink="http://www.w3.org/1999/xlink">
    <title>Fill 1</title>
    <g id="PLP-/-KHA" stroke="none" stroke-width="1" fill="none" fill-rule="evenodd">
        <g id="あなたへのメッセージ画面#1（処方せんメッセージ）" transform="translate(-41.000000, -717.000000)" fill="#FFFFFF">
            <g id="Group-2" transform="translate(13.000000, 700.000000)">
                <g id="Group-3" transform="translate(28.000000, 17.000000)">
                    <path d="M25.970483,19.7894452 C22.6850952,20.7662248 21.3532807,24.5850469 21.3532807,24.5850469 C21.3532807,24.5850469 19.521116,25.6022958 13.95472,20.0506555 C8.39752165,14.4806202 9.41477775,12.6484686 9.41477775,12.6484686 C9.41477775,12.6484686 13.2336271,11.3166636 14.2104137,8.02945976 C12.4260766,2.72799286 6.18089667,0 6.18089667,0 C6.18089667,0 1.82858572,1.51023745 0.0534462163,6.12740675 C-0.691560518,14.4916573 6.55983837,22.3592402 8.86659996,24.7064545 L8.86659996,24.7119731 C8.92362517,24.7671584 9.00640369,24.8499363 9.07814508,24.9216772 C9.15172599,24.9934181 9.232665,25.0780355 9.29152973,25.1332208 L9.29520877,25.1332208 C11.6424399,27.4399659 19.5100789,34.6931526 27.8725495,33.9463117 C32.4915913,32.1711848 34,27.8189049 34,27.8189049 C34,27.8189049 31.4853723,21.5553745 25.970483,19.7894452" id="Fill-1"></path>
                </g>
            </g>
        </g>
    </g>
</svg>