<?xml version="1.0" encoding="UTF-8"?>
<svg width="42px" height="42px" viewBox="0 0 42 42" version="1.1" xmlns="http://www.w3.org/2000/svg" xmlns:xlink="http://www.w3.org/1999/xlink">
    <title>Group 7</title>
    <g id="PLP-/-KHA" stroke="none" stroke-width="1" fill="none" fill-rule="evenodd">
        <g id="薬局店舗検索画面_OEM版4" transform="translate(-314.000000, -310.000000)">
            <g id="Group-7" transform="translate(315.000000, 311.000000)">
                <path d="M19.286,40 L19.286,40 C8.635,40 0,31.365 0,20.714 C0,9.273 9.275,0 20.715,0 C31.366,0 40,8.634 40,19.285 C40,30.726 30.726,40 19.286,40" id="Fill-1" fill="#FFFFFF"></path>
                <path d="M19.286,40 L19.286,40 C8.635,40 0,31.365 0,20.714 C0,9.273 9.275,0 20.715,0 C31.366,0 40,8.634 40,19.285 C40,30.726 30.726,40 19.286,40 Z" id="Stroke-3" stroke="#C92859" stroke-width="2" stroke-linecap="round" stroke-linejoin="round"></path>
                <path d="M18.0789,30.1025 L16.3059,23.6945 L9.8969,21.9205 C8.4859,21.5305 8.3099,19.5995 9.6279,18.9605 L27.6479,10.2305 C29.0029,9.5745 30.4259,10.9965 29.7689,12.3515 L21.0379,30.3725 C20.3999,31.6895 18.4699,31.5135 18.0789,30.1025" id="Fill-5" fill="#C92859"></path>
            </g>
        </g>
    </g>
</svg>