<?xml version="1.0" encoding="UTF-8"?>
<svg width="58px" height="58px" viewBox="0 0 58 58" version="1.1" xmlns="http://www.w3.org/2000/svg" xmlns:xlink="http://www.w3.org/1999/xlink">
    <title>Group 20</title>
    <defs>
        <path d="M0,29 C0,45.016152 12.9835703,58 28.9997223,58 L28.9997223,58 C45.0158744,58 58,45.016152 58,29 L58,29 C58,12.9835703 45.0158744,0 28.9997223,0 L28.9997223,0 C12.9835703,0 0,12.9835703 0,29 L0,29 Z" id="path-1"></path>
        <path d="M0,29 C0,45.016152 12.9832926,58 28.9997223,58 L28.9997223,58 C45.0158744,58 58,45.016152 58,29 L58,29 C58,12.9835703 45.0158744,0 28.9997223,0 L28.9997223,0 C12.9832926,0 0,12.9835703 0,29" id="path-3"></path>
        <path d="M0,6.54825275 C0,10.1647047 2.93153211,13.0967742 6.54825275,13.0967742 L6.54825275,13.0967742 C10.1649734,13.0967742 13.0967742,10.1647047 13.0967742,6.54825275 L13.0967742,6.54825275 C13.0967742,2.93153211 10.1649734,0 6.54825275,0 L6.54825275,0 C2.93153211,0 0,2.93153211 0,6.54825275 L0,6.54825275 Z" id="path-5"></path>
    </defs>
    <g id="PCP" stroke="none" stroke-width="1" fill="none" fill-rule="evenodd">
        <g id="PP-A-4-1.処方せん撮影画面" transform="translate(-221.000000, -641.000000)">
            <g id="Group-20" transform="translate(221.000000, 641.000000)">
                <path d="M29,58 C45.016152,58 58,45.016152 58,29 C58,12.983848 45.016152,0 29,0 C12.983848,0 0,12.983848 0,29 C0,45.016152 12.983848,58 29,58" id="Fill-1" fill="#C92859"></path>
                <g id="Group-5">
                    <mask id="mask-2" fill="white">
                        <use xlink:href="#path-1"></use>
                    </mask>
                    <g id="Clip-4"></g>
                    <polygon id="Fill-3" fill="#C92859" mask="url(#mask-2)" points="-373.777222 257.777222 230.388195 257.777222 230.388195 -1050.44278 -373.777222 -1050.44278"></polygon>
                </g>
                <g id="Group-8">
                    <mask id="mask-4" fill="white">
                        <use xlink:href="#path-3"></use>
                    </mask>
                    <g id="Clip-7"></g>
                    <path d="M28.9998056,57.9999167 C45.0159577,57.9999167 57.9998056,45.0160687 57.9998056,28.9999167 C57.9998056,12.9837647 45.0159577,-8.32974294e-05 28.9998056,-8.32974294e-05 C12.9833759,-8.32974294e-05 -0.000194360668,12.9837647 -0.000194360668,28.9999167 C-0.000194360668,45.0160687 12.9833759,57.9999167 28.9998056,57.9999167" id="Fill-6" fill="#C92859" mask="url(#mask-4)"></path>
                </g>
                <g id="Group-15" transform="translate(11.225806, 14.032258)">
                    <polygon id="Fill-9" fill="#FFFFFF" points="0.808834871 26.3117984 0.808834871 5.95840544 8.80798513 5.95840544 11.4992698 0.817177532 22.8851739 0.817177532 25.5761798 5.95840544 33.8041799 5.95840544 33.8041799 26.3117984"></polygon>
                    <path d="M1.61755824,25.4946209 L32.995345,25.4946209 L32.995345,6.7756393 L25.0890169,6.7756393 L22.398011,1.63441139 L11.9863212,1.63441139 L9.29503657,6.7756393 L1.61755824,6.7756393 L1.61755824,25.4946209 Z M34.6129032,27.1290323 L0,27.1290323 L0,5.14122791 L8.32082219,5.14122791 L11.0121068,0 L23.3722253,0 L26.0632313,5.14122791 L34.6129032,5.14122791 L34.6129032,27.1290323 Z" id="Fill-11" fill="#FFFFFF"></path>
                    <path d="M17.3065074,22.3896054 C21.0581387,22.3896054 24.099806,19.3165289 24.099806,15.5258098 C24.099806,11.7348091 21.0581387,8.66201424 17.3065074,8.66201424 C13.5548761,8.66201424 10.5132087,11.7348091 10.5132087,15.5258098 C10.5132087,19.3165289 13.5548761,22.3896054 17.3065074,22.3896054" id="Fill-13" fill="#C92859"></path>
                </g>
                <g id="Group-19" transform="translate(22.451613, 23.387097)">
                    <mask id="mask-6" fill="white">
                        <use xlink:href="#path-5"></use>
                    </mask>
                    <g id="Clip-17"></g>
                    <polygon id="Fill-16" fill="#C92859" mask="url(#mask-6)" points="-383.235887 226.074597 201.440323 226.074597 201.440323 -1039.94449 -383.235887 -1039.94449"></polygon>
                    <path d="M6.54833336,13.096613 C10.1647853,13.096613 13.0968548,10.1648122 13.0968548,6.54836023 C13.0968548,2.93163959 10.1647853,0.000107480554 6.54833336,0.000107480554 C2.93188142,0.000107480554 -0.000188090969,2.93163959 -0.000188090969,6.54836023 C-0.000188090969,10.1648122 2.93188142,13.096613 6.54833336,13.096613" id="Fill-18" fill="#C92859" mask="url(#mask-6)"></path>
                </g>
            </g>
        </g>
    </g>
</svg>