<?xml version="1.0" encoding="UTF-8"?>
<svg width="31px" height="28px" viewBox="0 0 31 28" version="1.1" xmlns="http://www.w3.org/2000/svg" xmlns:xlink="http://www.w3.org/1999/xlink">
    <title>Group 21</title>
    <g id="利用薬局" stroke="none" stroke-width="1" fill="none" fill-rule="evenodd">
        <g id="MPP-B-1.利用医療機関・薬局一覧画面（1件以上の登録あり）2" transform="translate(-38.000000, -442.000000)">
            <g id="Group-21" transform="translate(38.000000, 443.000000)">
                <polygon id="Fill-1" fill="#FFFFFF" points="3 26 27 26 27 8 3 8"></polygon>
                <g id="Group-6" transform="translate(3.000000, 8.000000)" stroke="#C92859">
                    <polyline id="Stroke-2" points="24 0 24 17.9996827 0 17.9996827 0 0"></polyline>
                    <polyline id="Stroke-4" points="5.744845 18 5.744845 8.61662128 11.9999192 8.61662128 18.2558013 8.61662128 18.2558013 18"></polyline>
                </g>
                <polygon id="Fill-7" fill="#C92859" points="0 8 31 8 31 4 0 4"></polygon>
                <g id="Group-20" transform="translate(9.000000, 0.000000)">
                    <path d="M0,6.24805629 C0,2.79723324 2.68617929,0 6,0 C9.31382071,0 12,2.79723324 12,6.24805629 C12,9.69887935 9.31382071,12.4961126 6,12.4961126 C2.68617929,12.4961126 0,9.69887935 0,6.24805629" id="Fill-8" fill="#FFFFFF"></path>
                    <path d="M0,6.24805629 C0,2.79723324 2.68617929,0 6,0 C9.31382071,0 12,2.79723324 12,6.24805629 C12,9.69887935 9.31382071,12.4961126 6,12.4961126 C2.68617929,12.4961126 0,9.69887935 0,6.24805629 Z" id="Stroke-10" stroke="#C92859"></path>
                    <path d="M8.25840662,6.30890493 L5.99747998,8.66330441 C5.37456359,9.31197386 4.36419478,9.31197386 3.74127838,8.66330441 C3.11836199,8.01463496 3.11836199,6.96249476 3.74127838,6.31382531 L6.00220501,3.95942583 C6.62512141,3.31075638 7.63549022,3.31075638 8.25840662,3.95942583 C8.88132301,4.60891534 8.88132301,5.66023548 8.25840662,6.30890493 Z" id="Stroke-12" stroke="#C92859" stroke-linecap="round" stroke-linejoin="round"></path>
                    <path d="M7.1279433,7.48618668 L5.99708623,8.66379645 C5.37416984,9.3124659 4.36458853,9.3124659 3.74167214,8.66379645 C3.11796824,8.015127 3.11796824,6.96216673 3.74167214,6.31349728 L4.8717417,5.13670758 L7.1279433,7.48618668 Z" id="Fill-14" fill="#C92859"></path>
                    <path d="M7.1279433,7.48618668 L5.99708623,8.66379645 C5.37416984,9.3124659 4.36458853,9.3124659 3.74167214,8.66379645 C3.11796824,8.015127 3.11796824,6.96216673 3.74167214,6.31349728 L4.8717417,5.13670758 L7.1279433,7.48618668 Z" id="Stroke-16" stroke="#C92859" stroke-linecap="round" stroke-linejoin="round"></path>
                    <line x1="5.999685" y1="26" x2="5.999685" y2="17.1794076" id="Stroke-18" stroke="#C92859"></line>
                </g>
            </g>
        </g>
    </g>
</svg>