<?xml version="1.0" encoding="UTF-8"?>
<svg width="19px" height="16px" viewBox="0 0 19 16" version="1.1" xmlns="http://www.w3.org/2000/svg" xmlns:xlink="http://www.w3.org/1999/xlink">
    <title>Group 11</title>
    <g id="PCP" stroke="none" stroke-width="1" fill="none" fill-rule="evenodd">
        <g id="MPP-A-1.ホーム画面（登録あり：薬局選択中）-Copy-3" transform="translate(-316.000000, -361.000000)" fill="#C92859">
            <g id="Group-11" transform="translate(316.000000, 361.000000)">
                <path d="M11.2060772,13.0041579 C11.2028645,13.0041579 11.1985808,13.0019695 11.1953681,13.0019695 L7.80593017,13.0019695 C7.80271743,13.0019695 7.79843378,13.0041579 7.79522104,13.0041579 L4.75490059,13.0041579 C5.28286042,12.2732511 5.9082733,11.112335 6.22954703,9.43825224 L6.30879456,9.01918448 C6.83996713,6.21810489 7.20943193,4.70486542 8.80402057,4.38755562 L10.2015613,4.38755562 C11.7929372,4.70486542 12.1613311,6.21810489 12.6925037,9.01918448 L12.7717512,9.43825224 C13.093025,11.112335 13.7184378,12.2732511 14.2463977,13.0041579 L11.2060772,13.0041579 Z M9.50118458,14.9058283 C8.98928843,14.9058283 8.55342706,14.5677292 8.39600293,14.0983296 L10.6042244,14.0983296 C10.4478712,14.5677292 10.0120098,14.9058283 9.50118458,14.9058283 L9.50118458,14.9058283 Z M9.11672701,2.09417171 L9.88564215,2.09417171 L9.88564215,3.24633452 C9.75820357,3.23648698 9.63397773,3.22554526 9.49690093,3.22554526 C9.36303688,3.22554526 9.24095286,3.23648698 9.11672701,3.24633452 L9.11672701,2.09417171 Z M13.8233872,9.22926545 L13.7441397,8.81129185 C13.2772219,6.34831133 12.8584951,4.16434459 10.9565546,3.46298052 L10.9565546,1.54708586 C10.9565546,1.24509446 10.7166702,1 10.4210984,1 L8.58127078,1 C8.28462803,1 8.04581456,1.24509446 8.04581456,1.54708586 L8.04581456,3.46188635 C6.14387404,4.16106208 5.72514727,6.34612298 5.25715853,8.81129185 L5.177911,9.22926545 C4.65744755,11.9515647 3.2256376,13.1048217 3.21385756,13.1146692 C3.02966062,13.2547232 2.95469675,13.5009118 3.0275188,13.7241228 C3.10034084,13.9473339 3.30488512,14.0983296 3.5351313,14.0983296 L7.3015304,14.0983296 C7.48144369,15.1749945 8.39600293,16 9.50118458,16 C10.6052953,16 11.5198546,15.1749945 11.6997679,14.0983296 L15.466167,14.0983296 C15.6942713,14.0983296 15.8977447,13.948428 15.9716376,13.7263112 C16.0455306,13.5052885 15.9716376,13.2580057 15.7895825,13.1168575 C15.7756607,13.1048217 14.3438507,11.9515647 13.8233872,9.22926545 L13.8233872,9.22926545 Z" id="Fill-1"></path>
                <path d="M3.52709028,8 C3.79759466,8 4.02704973,7.7853935 4.0512583,7.49961647 C4.35018142,3.92138154 6.53526738,3.10346799 6.63841691,3.06733526 C6.91313148,2.97317118 7.06364559,2.66659047 6.97417916,2.37971851 C6.88576528,2.09175163 6.58894724,1.93298661 6.31212759,2.02715069 C6.19213732,2.06656821 3.36499816,3.06405047 3.00186971,7.4054524 C2.97766115,7.70546353 3.19132803,7.97262672 3.48077824,7.99781014 C3.49656643,7.99890507 3.51130208,8 3.52709028,8" id="Fill-3"></path>
                <path d="M4.62049637,1.12471118 C4.91772995,1.01587367 5.07325914,0.685887592 4.96611681,0.386005509 C4.85897447,0.0849655811 4.53063506,-0.0771328417 4.22994528,0.0363360543 C4.07672023,0.0895969646 0.46613877,1.45122372 0.00185532164,7.37592107 C-0.0234901768,7.69548653 0.213835854,7.97336954 0.530654584,7.99884215 C0.545631469,7.99884215 0.561760423,8 0.576737308,8 C0.873970881,8 1.1262738,7.76958867 1.15046723,7.4673909 C1.55138693,2.3392915 4.48800854,1.17449855 4.62049637,1.12471118" id="Fill-5"></path>
                <path d="M13.6857711,2.02634873 C13.4129887,1.93436217 13.1170356,2.09095834 13.0264592,2.37567866 C12.9358828,2.66149405 13.0854392,2.97030609 13.3592748,3.06667297 C13.4519576,3.09952531 15.6479088,3.91316837 15.9480748,7.49954929 C15.9722987,7.78536468 16.2018993,8 16.4725753,8 C16.4883735,8 16.5031185,7.99890492 16.5189167,7.99780984 C16.8085506,7.97262305 17.022353,7.70651906 16.9981291,7.40537257 C16.6337171,3.06338773 13.8058375,2.06577154 13.6857711,2.02634873" id="Fill-7"></path>
                <path d="M14.7678686,0.0341833348 C14.4716341,-0.0735097819 14.143125,0.0816609454 14.0347747,0.381580486 C13.9264243,0.680342035 14.0797285,1.01268531 14.3771157,1.12269441 C14.502756,1.16901403 17.4466586,2.32932051 17.8489382,7.46616638 C17.8731441,7.76955989 18.1255774,8 18.4229646,8 C18.4391019,8 18.4540865,7.99884201 18.4690712,7.99768402 C18.7860536,7.97220823 19.0235023,7.69429051 18.9981437,7.37584312 C18.534773,1.45040572 14.9211729,0.0886088884 14.7678686,0.0341833348" id="Fill-9"></path>
            </g>
        </g>
    </g>
</svg>