<?xml version="1.0" encoding="UTF-8"?>
<svg width="56px" height="35px" viewBox="0 0 56 35" version="1.1" xmlns="http://www.w3.org/2000/svg" xmlns:xlink="http://www.w3.org/1999/xlink">
    <title>Group 10</title>
    <defs>
        <polygon id="path-1" points="0 0 10.895164 0 10.895164 34.1638 0 34.1638"></polygon>
    </defs>
    <g id="PCP" stroke="none" stroke-width="1" fill="none" fill-rule="evenodd">
        <g id="MPP-A-1.ホーム画面（登録あり：薬局選択中）" transform="translate(-160.000000, -317.000000)">
            <g id="Group-10" transform="translate(160.000000, 317.000000)">
                <path d="M27.7756001,31.7851 C19.7106001,31.7851 13.1496001,25.2231 13.1496001,17.1581 C13.1496001,9.0941 19.7106001,2.5321 27.7756001,2.5321 C35.8406001,2.5321 42.4016001,9.0941 42.4016001,17.1581 C42.4016001,25.2231 35.8406001,31.7851 27.7756001,31.7851 M27.7756001,1.5321 C19.1586001,1.5321 12.1496001,8.5421 12.1496001,17.1581 C12.1496001,25.7751 19.1586001,32.7851 27.7756001,32.7851 C36.3926001,32.7851 43.4016001,25.7751 43.4016001,17.1581 C43.4016001,8.5421 36.3926001,1.5321 27.7756001,1.5321" id="Fill-1" fill="#C92859"></path>
                <path d="M27.7756001,26.538 C22.6036001,26.538 18.3966001,22.33 18.3966001,17.158 C18.3966001,11.986 22.6036001,7.779 27.7756001,7.779 C32.9476001,7.779 37.1556001,11.986 37.1556001,17.158 C37.1556001,22.33 32.9476001,26.538 27.7756001,26.538 M27.7756001,6.779 C22.0526001,6.779 17.3966001,11.435 17.3966001,17.158 C17.3966001,22.882 22.0526001,27.538 27.7756001,27.538 C33.4996001,27.538 38.1556001,22.882 38.1556001,17.158 C38.1556001,11.435 33.4996001,6.779 27.7756001,6.779" id="Fill-3" fill="#C92859"></path>
                <path d="M9.02120012,9.7695 C8.76320012,11.1225 8.04720012,11.9935 7.35520012,12.8365 C6.53020012,13.8415 5.67620012,14.8815 5.75520012,16.5955 L5.87720012,19.2865 C6.05320012,23.1735 6.31720012,29.0495 6.42120012,30.5465 C6.48220012,31.4245 6.40320012,32.9245 5.18920012,33.1145 C5.16320012,33.1185 5.13720012,33.1245 5.11220012,33.1325 C5.09420012,33.1315 5.07320012,33.1305 5.04920012,33.1305 C5.04620012,33.1305 5.04220012,33.1305 5.03720012,33.1315 C5.01320012,33.1235 4.98820012,33.1185 4.96320012,33.1145 C3.75020012,32.9245 3.67020012,31.4245 3.73120012,30.5465 C3.83620012,29.0355 4.10320012,23.0995 4.28020012,19.1715 L4.39620012,16.5955 C4.47620012,14.8815 3.62220012,13.8425 2.79720012,12.8365 C2.10420012,11.9945 1.38920012,11.1225 1.13120012,9.7695 C0.718200122,7.6055 1.27120012,4.0725 2.75020012,2.2625 C3.40320012,1.4635 4.18120012,1.0535 5.05520012,1.0435 C5.06720012,1.0425 5.08120012,1.0435 5.09320012,1.0435 C5.97220012,1.0545 6.75020012,1.4645 7.40220012,2.2635 C8.88220012,4.0725 9.43420012,7.6055 9.02120012,9.7695 M5.12520012,0.0435 C5.07920012,0.0385 5.03220012,0.0405339594 4.98720012,0.0445 C3.83920012,0.0775 2.79820012,0.6235 1.97620012,1.6295 C0.266200122,3.7215 -0.303799878,7.5815 0.149200122,9.9565 C0.455200122,11.5595 1.28820012,12.5755 2.02420012,13.4715 C2.79420012,14.4095 3.45920012,15.2195 3.39720012,16.5485 L3.28120012,19.1265 C3.10420012,23.0495 2.83720012,28.9775 2.73320012,30.4785 C2.59720012,32.4505 3.31420012,33.7805 4.65820012,34.0745 C4.75820012,34.1335 4.85620012,34.1465 4.92020012,34.1465 C4.94520012,34.1465 5.04420012,34.1355 5.06920012,34.1315 C5.12220012,34.1405 5.17420012,34.1465 5.23220012,34.1465 C5.31420012,34.1465 5.39820012,34.1215 5.47420012,34.0785 C6.83220012,33.7925 7.55620012,32.4585 7.41920012,30.4785 C7.31620012,28.9925 7.05120012,23.1235 6.87620012,19.2415 L6.75420012,16.5485 C6.69320012,15.2195 7.35820012,14.4095 8.12820012,13.4705 C8.86420012,12.5755 9.69820012,11.5595 10.0032001,9.9565 C10.4572001,7.5815 9.88720012,3.7215 8.17620012,1.6295 C7.34420012,0.6125 6.28920012,0.0645 5.12520012,0.0435" id="Fill-5" fill="#C92859"></path>
                <g id="Group-9" transform="translate(44.742427, 0.000000)">
                    <mask id="mask-2" fill="white">
                        <use xlink:href="#path-1"></use>
                    </mask>
                    <g id="Clip-8"></g>
                    <path d="M9.53267263,9.5478 C9.28467263,10.9028 8.63367263,11.8238 8.00267263,12.7148 C7.24667263,13.7828 6.46467263,14.8878 6.54367263,16.5958 L6.66067263,19.1718 C6.83767263,23.0998 7.10467263,29.0348 7.20867263,30.5468 C7.26967263,31.4248 7.19067263,32.9248 5.97067263,33.1148 C5.94967263,33.1195763 4.96367263,33.1228 4.91767263,33.1138 C3.70367263,32.9248 3.62467263,31.4248 3.68567263,30.5468 C3.78967263,29.0498 4.05367263,23.1738 4.22967263,19.2858 L4.35167263,16.5958 C4.42967263,14.8878 3.64867263,13.7828 2.89267263,12.7148 C2.26167263,11.8238 1.61067263,10.9028 1.36267263,9.5478 C0.610672629,5.4318 1.17567263,1.2998 1.75367263,1.1738 C2.21667263,1.1978 2.15667263,3.3468 2.12367263,4.5018 C2.05067263,7.1628 2.48067263,7.9218 2.81067263,8.2618 C3.26267263,8.7268 4.00967263,8.6858 4.40767263,8.2768 C4.90667263,7.7648 4.88367263,6.8208 4.85167263,5.5148 C4.84467263,5.2358 4.83767263,4.9408 4.83567263,4.6348 C4.81767263,2.0928 5.08367263,1.2878 5.30967263,1.0598 C5.39467263,0.9758 5.50167263,0.9758 5.58467263,1.0598 C5.81167263,1.2878 6.07767263,2.0928 6.05967263,4.6348 C6.05767263,4.9428 6.05067263,5.2368 6.04367263,5.5178 C6.01167263,6.8218 5.98867263,7.7658 6.48767263,8.2768 C6.88567263,8.6858 7.63267263,8.7268 8.08367263,8.2618 C8.41467263,7.9218 8.84567263,7.1618 8.77067263,4.5018 C8.73867263,3.3468 8.67867263,1.1978 9.14367263,1.1738 C9.71967263,1.3028 10.2836726,5.4358 9.53267263,9.5478 M9.97167263,0.5778 C9.66067263,0.2238 9.31967263,0.1578 9.09067263,0.1758 C7.65167263,0.2488 7.70667263,2.2328 7.77067263,4.5288 C7.83667263,6.8928 7.47867263,7.4488 7.36667263,7.5648 L7.20267263,7.5778 C6.99867263,7.3688 7.02267263,6.3988 7.04267263,5.5418 C7.05067263,5.2558 7.05767263,4.9548 7.05967263,4.6428 C7.07667263,2.1618 6.85567263,0.9198 6.29467263,0.3558 C6.07367263,0.1328 5.79267263,0.0108 5.47967263,0.0008 C5.46967263,-0.00045 5.46167263,-0.00045 5.44767263,-0.00045 C5.43767263,-0.00045 5.42567263,-0.0012 5.41467263,0.0008 C5.10267263,0.0108 4.82167263,0.1328 4.59967263,0.3558 C4.03967263,0.9198 3.81767263,2.1618 3.83567263,4.6428 C3.83767263,4.9538 3.84567263,5.2538 3.85167263,5.5388 C3.87267263,6.3968 3.89667263,7.3678 3.69167263,7.5778 L3.52767263,7.5648 C3.41667263,7.4498 3.05867263,6.8928 3.12367263,4.5288 C3.18767263,2.2328 3.24267263,0.2488 1.80467263,0.1758 C1.57967263,0.1588 1.23467263,0.2238 0.923672629,0.5778 C-0.257327371,1.9228 -0.148327371,6.8418 0.378672629,9.7278 C0.665672629,11.3008 1.41467263,12.3588 2.07567263,13.2918 C2.79467263,14.3078 3.41567263,15.1848 3.35267263,16.5488 L3.23067263,19.2408 C3.05567263,23.1238 2.79067263,28.9918 2.68767263,30.4788 C2.54667263,32.5228 3.32267263,33.8768 4.75167263,34.1008 C4.75167263,34.1008 5.10667263,34.1638 5.43967263,34.1638 C5.76567263,34.1638 6.13067263,34.1028 6.13167263,34.1028 C7.57267263,33.8768 8.34867263,32.5228 8.20667263,30.4788 C8.10267263,28.9778 7.83567263,23.0498 7.65967263,19.1268 L7.54267263,16.5488 C7.47967263,15.1848 8.10067263,14.3078 8.81967263,13.2928 C9.47967263,12.3588 10.2286726,11.3008 10.5156726,9.7278 C11.0436726,6.8418 11.1526726,1.9238 9.97167263,0.5778" id="Fill-7" fill="#C92859" mask="url(#mask-2)"></path>
                </g>
            </g>
        </g>
    </g>
</svg>