<?xml version="1.0" encoding="UTF-8"?>
<svg width="12px" height="12px" viewBox="0 0 12 12" version="1.1" xmlns="http://www.w3.org/2000/svg" xmlns:xlink="http://www.w3.org/1999/xlink">
    <title>Group 8</title>
    <defs>
        <polygon id="path-1" points="0 0 12 0 12 12 0 12"></polygon>
    </defs>
    <g id="-" stroke="none" stroke-width="1" fill="none" fill-rule="evenodd">
        <g id="PP-A-2-01.登録店舗選択画面#3（パレット薬局マップ）" transform="translate(-342.000000, -650.000000)">
            <g id="Group-8" transform="translate(342.000000, 650.000000)">
                <path d="M12,6.00002886 C12,9.31368182 9.31369474,12 6,12 C2.68630526,12 0,9.31368182 0,6.00002886 C0,2.68631818 2.68630526,0 6,0 C9.31369474,0 12,2.68631818 12,6.00002886" id="Fill-1" fill="#C92859"></path>
                <g id="Group-5">
                    <mask id="mask-2" fill="white">
                        <use xlink:href="#path-1"></use>
                    </mask>
                    <g id="Clip-4"></g>
                    <path d="M5.99999426,0.0574466129 C2.72324259,0.0574466129 0.0574350686,2.72325669 0.0574350686,6.00001149 C0.0574350686,9.27670885 2.72324259,11.9425764 5.99999426,11.9425764 C9.27674592,11.9425764 11.9425534,9.27670885 11.9425534,6.00001149 C11.9425534,2.72325669 9.27674592,0.0574466129 5.99999426,0.0574466129 M5.99998851,12.000023 C2.69158954,12.000023 -1.14893116e-05,9.30841938 -1.14893116e-05,6.00001149 C-1.14893116e-05,2.6916036 2.69158954,0 5.99998851,0 C9.30839897,0 12,2.6916036 12,6.00001149 C12,9.30841938 9.30839897,12.000023 5.99998851,12.000023" id="Fill-3" fill="#C92859" mask="url(#mask-2)"></path>
                </g>
                <path d="M6.81234428,5.99994256 L8.83171658,3.98060353 C9.0560849,3.75623253 9.0560849,3.39250565 8.83177402,3.16819209 C8.6074057,2.94399341 8.24374062,2.94393597 8.01942974,3.16819209 L6,5.18758856 L3.98057026,3.16819209 C3.75625938,2.94393597 3.39253685,2.94393597 3.16822598,3.16819209 C2.9439151,3.39250565 2.9439151,3.75623253 3.16828342,3.98060353 L5.18765572,5.99994256 L3.16828342,8.01933903 C2.9439151,8.24371003 2.9439151,8.60743691 3.16822598,8.83175047 C3.28041014,8.94387853 3.42740413,9 3.57439812,9 C3.72139211,9 3.86844354,8.94387853 3.98057026,8.83175047 L6,6.812354 L8.01942974,8.83175047 C8.13155646,8.94387853 8.27855045,9 8.42554444,9 C8.57259587,9 8.71958986,8.94387853 8.83177402,8.83175047 C9.0560849,8.60743691 9.0560849,8.24371003 8.83171658,8.01933903 L6.81234428,5.99994256 Z" id="Fill-6" fill="#FFFFFF"></path>
            </g>
        </g>
    </g>
</svg>