<?xml version="1.0" encoding="UTF-8"?>
<svg width="36px" height="16px" viewBox="0 0 36 16" version="1.1" xmlns="http://www.w3.org/2000/svg" xmlns:xlink="http://www.w3.org/1999/xlink">
    <title>Group 9</title>
    <g id="Page-1" stroke="none" stroke-width="1" fill="none" fill-rule="evenodd">
        <g id="Group-9" fill="#FFFFFF">
            <path d="M8.96412385,16 L1.03642221,16 C0.464151149,16 0,15.5085007 0,14.9009681 L0,1.09848459 C0,0.491499333 0.464151149,0 1.03642221,0 L8.96412385,0 C9.53639491,0 10,0.491499333 10,1.09848459 L10,14.9009681 C10,15.5085007 9.53639491,16 8.96412385,16" id="Fill-3"></path>
            <path d="M21.9641238,16 L14.0364222,16 C13.4641511,16 13,15.5085007 13,14.9009681 L13,1.09848459 C13,0.491499333 13.4641511,0 14.0364222,0 L21.9641238,0 C22.5363949,0 23,0.491499333 23,1.09848459 L23,14.9009681 C23,15.5085007 22.5363949,16 21.9641238,16" id="Fill-5"></path>
            <path d="M34.9641238,16 L27.0364222,16 C26.4641511,16 26,15.5085007 26,14.9009681 L26,1.09848459 C26,0.491499333 26.4641511,0 27.0364222,0 L34.9641238,0 C35.5363949,0 36,0.491499333 36,1.09848459 L36,14.9009681 C36,15.5085007 35.5363949,16 34.9641238,16" id="Fill-7"></path>
        </g>
    </g>
</svg>