<?xml version="1.0" encoding="UTF-8"?>
<svg width="24px" height="44px" viewBox="0 0 24 44" version="1.1" xmlns="http://www.w3.org/2000/svg" xmlns:xlink="http://www.w3.org/1999/xlink">
    <title>Group 6</title>
    <defs>
        <polygon id="path-1" points="5.55111512e-16 0 23.9408178 0 23.9408178 34.037 5.55111512e-16 34.037"></polygon>
    </defs>
    <g id="PCP" stroke="none" stroke-width="1" fill="none" fill-rule="evenodd">
        <g id="MPP-A-1.ホーム画面（登録あり：薬局選択中）" transform="translate(-67.000000, -312.000000)">
            <g id="Group-6" transform="translate(67.000000, 312.000000)">
                <g id="Group-3" transform="translate(0.000000, 9.133600)">
                    <mask id="mask-2" fill="white">
                        <use xlink:href="#path-1"></use>
                    </mask>
                    <g id="Clip-2"></g>
                    <path d="M22.0218178,16.218 C21.7108178,16.297 21.3308178,16.233 21.0268178,16.042 C20.7868178,15.893 20.4758178,15.594 20.3678178,15.061 C19.6538178,9.529 17.0548178,6.83 16.9438178,6.718 C16.8018178,6.573 16.5858178,6.528 16.3978178,6.606 C16.2098178,6.683 16.0878178,6.865 16.0878178,7.069 L16.0878178,31.895 C16.0878178,32.796 15.2048178,33.037 14.6838178,33.037 C14.1618178,33.037 13.2788178,32.796 13.2788178,31.895 L13.2788178,18.891 C13.2788178,17.763 12.7728178,17.033 11.9908178,17.033 L11.9898178,17.044 C11.9768178,17.043 11.9638178,17.043 11.9508178,17.043 L11.9508178,17.033 C11.1678178,17.033 10.6628178,17.763 10.6628178,18.891 L10.6628178,31.895 C10.6628178,32.796 9.77981776,33.037 9.25781776,33.037 C8.73581776,33.037 7.85381776,32.796 7.85381776,31.895 L7.85381776,7.069 C7.85381776,6.865 7.73081776,6.683 7.54281776,6.606 C7.35481776,6.528 7.13981776,6.573 6.99681776,6.718 C6.88681776,6.83 4.28781776,9.529 3.57881776,15.028 C3.46581776,15.594 3.15481776,15.893 2.91381776,16.042 C2.60981776,16.233 2.22981776,16.298 1.91981776,16.218 C1.15081776,16.015 0.861817765,15.276 1.05981776,14.021 C1.27981776,12.626 2.19381776,7.85 4.70981776,4.944 C7.29381776,1.958 9.05381776,1 11.8998178,0.999 C11.9208178,1.002 11.9548178,1.002 11.9908178,0.998 L11.9908178,1 C14.8878178,1 16.6468178,1.958 19.2308178,4.944 C21.7468178,7.85 22.6608178,12.626 22.8808178,14.021 C23.0788178,15.276 22.7898178,16.015 22.0218178,16.218 M23.8688178,13.864 C23.6378178,12.404 22.6768178,7.396 19.9868178,4.289 C17.6118178,1.545 15.6458178,0.041 12.0478178,0.01 C12.0148178,0.004 11.9798178,0 11.9508178,0 C8.34981776,0 6.36181776,1.508 3.95381776,4.289 C1.26481776,7.396 0.302817765,12.404 0.0728177648,13.864 C-0.310182235,16.287 0.905817765,16.985 1.66581776,17.185 C2.24081776,17.336 2.90581776,17.227 3.44381776,16.891 C4.02081776,16.531 4.41681776,15.939 4.56481776,15.19 C4.97781776,11.991 6.07181776,9.788 6.85381776,8.566 L6.85381776,31.895 C6.85381776,34.708 11.6628178,34.706 11.6628178,31.895 L11.6628178,18.891 C11.6628178,18.357 11.8408178,18.039 11.9738178,18.033 C12.1228178,18.041 12.2788178,18.364 12.2788178,18.891 L12.2788178,31.895 C12.2788178,33.301 13.4878178,34.037 14.6838178,34.037 C15.8778178,34.037 17.0878178,33.301 17.0878178,31.895 L17.0878178,8.568 C17.8698178,9.793 18.9658178,12.004 19.3818178,15.223 C19.5248178,15.939 19.9208178,16.531 20.4978178,16.891 C21.0348178,17.227 21.7018178,17.336 22.2758178,17.185 C23.0348178,16.985 24.2508178,16.287 23.8688178,13.864" id="Fill-1" fill="#C92859" mask="url(#mask-2)"></path>
                </g>
                <path d="M11.9544178,1 C13.7824178,1 15.2694178,2.487 15.2694178,4.315 C15.2694178,6.143 13.7824178,7.63 11.9544178,7.63 C10.1264178,7.63 8.64041776,6.143 8.64041776,4.315 C8.64041776,2.487 10.1264178,1 11.9544178,1 M11.9544178,8.63 C14.3334178,8.63 16.2694178,6.694 16.2694178,4.315 C16.2694178,1.936 14.3334178,0 11.9544178,0 C9.57541776,0 7.64041776,1.936 7.64041776,4.315 C7.64041776,6.694 9.57541776,8.63 11.9544178,8.63" id="Fill-4" fill="#C92859"></path>
            </g>
        </g>
    </g>
</svg>