<?xml version="1.0" encoding="UTF-8"?>
<svg width="36px" height="36px" viewBox="0 0 36 36" version="1.1" xmlns="http://www.w3.org/2000/svg" xmlns:xlink="http://www.w3.org/1999/xlink">
    <title>Group 12</title>
    <defs>
        <polygon id="path-1" points="0 0 36 0 36 36 0 36"></polygon>
    </defs>
    <g id="PCP" stroke="none" stroke-width="1" fill="none" fill-rule="evenodd">
        <g id="PP-A-3.店舗詳細画面" transform="translate(-321.000000, -453.000000)">
            <g id="Group-12" transform="translate(321.000000, 453.000000)">
                <path d="M36,18.0000866 C36,27.9410455 27.9410842,36 18,36 C8.05891577,36 0,27.9410455 0,18.0000866 C0,8.05895454 8.05891577,0 18,0 C27.9410842,0 36,8.05895454 36,18.0000866" id="Fill-1" fill="#C92859"></path>
                <g id="Group-5">
                    <mask id="mask-2" fill="white">
                        <use xlink:href="#path-1"></use>
                    </mask>
                    <g id="Clip-4"></g>
                    <path d="M17.9999828,0.172339839 C8.16972777,0.172339839 0.172305206,8.16977006 0.172305206,18.0000345 C0.172305206,27.8301265 8.16972777,35.8277291 17.9999828,35.8277291 C27.8302378,35.8277291 35.8276603,27.8301265 35.8276603,18.0000345 C35.8276603,8.16977006 27.8302378,0.172339839 17.9999828,0.172339839 M17.9999828,36.0000689 C8.07476861,36.0000689 -3.44679348e-05,27.9252581 -3.44679348e-05,18.0000345 C-3.44679348e-05,8.07481081 8.07476861,0 17.9999828,0 C27.9251969,0 36,8.07481081 36,18.0000345 C36,27.9252581 27.9251969,36.0000689 17.9999828,36.0000689" id="Fill-3" fill="#C92859" mask="url(#mask-2)"></path>
                </g>
                <path d="M24.7043853,23.2411096 C23.3157614,21.8483949 21.445287,21.5970741 20.8267089,22.2176444 C20.2079614,22.8382147 19.781683,23.7192819 19.3142339,24.188278 C18.8625414,24.6414711 16.5471516,22.7459448 14.8904942,21.1423517 C13.2916113,19.4808137 11.4016528,17.1586028 11.8535147,16.7055797 C12.3209639,16.2365835 13.1996124,15.8092192 13.8183599,15.1886489 C14.436938,14.5680786 14.1865249,12.6922637 12.7979009,11.2995489 C11.409277,9.9066642 9.71619273,9.69544599 9.04255086,10.3712423 C8.54765451,10.8677666 8.34332552,11.1936849 7.7150901,12.1564865 C5.98828983,14.8027466 7.4016501,19.1297463 11.816749,23.7503783 C11.8367414,23.7756973 11.8577504,23.8001667 11.8807924,23.8234466 C11.9372116,23.8798621 11.9934614,23.9357678 12.0498806,23.9913336 C12.1052832,24.0477491 12.1610247,24.1043345 12.2172745,24.16075 C12.240486,24.1840299 12.2648835,24.2051007 12.2901281,24.225152 C16.8971879,28.6532578 21.0823743,29.941468 23.8501342,28.3388944 C24.8434849,27.7635244 25.1350688,27.5038772 25.6299652,27.0075229 C26.303607,26.3317266 26.0930092,24.6338244 24.7043853,23.2411096" id="Fill-6" fill="#FFFFFF"></path>
                <path d="M27.2710598,18 C26.9115482,18 26.5990443,17.7338138 26.5504521,17.3676318 C26.1636515,14.4515552 24.7322954,12.2380904 22.295997,10.7888546 C20.4373467,9.68344252 18.6568665,9.45246616 18.6390846,9.45035357 C18.240664,9.40070774 17.9566816,9.03822273 18.0054498,8.63964766 C18.054042,8.24124864 18.4154902,7.95780966 18.8139107,8.00516686 C18.8970104,8.0150256 20.8720353,8.26343082 22.9884353,9.50721742 C24.9615236,10.6668526 27.4316252,12.9385896 27.9936042,17.1762665 C28.0464217,17.5748415 27.7663126,17.9406715 27.367716,17.9936622 C27.3351451,17.9978874 27.3029264,18 27.2710598,18" id="Fill-8" fill="#FFFFFF"></path>
                <path d="M23.3147192,18 C22.9767403,18 22.6829535,17.7497877 22.6372718,17.4057457 C22.1665509,13.856934 18.7447215,13.381663 18.599235,13.3631288 C18.2251741,13.3156348 17.9590282,12.9745715 18.0052065,12.6004114 C18.0515503,12.2262513 18.3905223,11.9604835 18.7647487,12.0048333 C18.8120856,12.0106252 19.9412197,12.1524453 21.1400352,12.8569122 C22.2653626,13.5181876 23.6738838,14.8129371 23.9939872,17.2258643 C24.0436413,17.6003553 23.7803091,17.9443973 23.4055862,17.9940426 C23.3751317,17.9980142 23.3446771,18 23.3147192,18" id="Fill-10" fill="#FFFFFF"></path>
            </g>
        </g>
    </g>
</svg>