<?xml version="1.0" encoding="UTF-8"?>
<svg width="54px" height="39px" viewBox="0 0 54 39" version="1.1" xmlns="http://www.w3.org/2000/svg" xmlns:xlink="http://www.w3.org/1999/xlink">
    <title>Group 19</title>
    <g id="Page-1" stroke="none" stroke-width="1" fill="none" fill-rule="evenodd">
        <g id="Group-19" transform="translate(7.000000, 0.000000)">
            <polygon id="Fill-1" fill="#C92859" points="5.759 21.0919 10.251 21.0919 10.251 16.5999 5.759 16.5999"></polygon>
            <polygon id="Fill-2" fill="#C92859" points="13.748 21.0919 18.24 21.0919 18.24 16.5999 13.748 16.5999"></polygon>
            <polygon id="Fill-3" fill="#C92859" points="21.737 21.0919 26.229 21.0919 26.229 16.5999 21.737 16.5999"></polygon>
            <polygon id="Fill-4" fill="#C92859" points="29.726 21.0919 34.218 21.0919 34.218 16.5999 29.726 16.5999"></polygon>
            <polygon id="Fill-5" fill="#C92859" points="5.759 29.1379 10.251 29.1379 10.251 24.6469 5.759 24.6469"></polygon>
            <polygon id="Fill-6" fill="#C92859" points="13.748 29.1379 18.24 29.1379 18.24 24.6469 13.748 24.6469"></polygon>
            <polygon id="Fill-7" fill="#C92859" points="21.737 29.1379 26.229 29.1379 26.229 24.6469 21.737 24.6469"></polygon>
            <polygon id="Fill-8" fill="#C92859" points="29.726 29.1379 34.218 29.1379 34.218 24.6469 29.726 24.6469"></polygon>
            <g id="Group-18">
                <path d="M0.805,34.5389 L39.172,34.5389 L39.172,11.4609 L0.805,11.4609 L0.805,34.5389 Z M30.413,4.4579 L30.413,6.6709 C30.413,8.5319 29.042,9.0369 28.047,9.0369 C26.972,9.0369 25.68,8.5319 25.68,6.6709 L25.68,4.4579 L14.017,4.4579 L14.017,6.6709 C14.017,8.5319 12.704,9.0369 11.65,9.0369 C10.449,9.0369 9.284,8.5319 9.284,6.6709 L9.284,4.4579 L0,4.4579 L0,12.4609 L0,35.3409 L39.977,35.3409 L39.977,12.4609 L39.977,4.4579 L30.413,4.4579 Z" id="Fill-9" fill="#C92859"></path>
                <path d="M11.6503,7.382 C11.3743,7.382 11.1503,7.171 11.1503,6.671 L11.1503,0.703 C11.1503,0.203 11.3743,0 11.6503,0 C11.9263,0 12.1503,0.203 12.1503,0.703 L12.1503,6.671 C12.1503,7.171 11.9263,7.382 11.6503,7.382" id="Fill-11" fill="#C92859"></path>
                <path d="M28.0467,7.382 C27.7707,7.382 27.5467,7.171 27.5467,6.671 L27.5467,0.703 C27.5467,0.203 27.7707,0 28.0467,0 C28.3227,0 28.5467,0.203 28.5467,0.703 L28.5467,6.671 C28.5467,7.171 28.3227,7.382 28.0467,7.382" id="Fill-12" fill="#C92859"></path>
                <path d="M31.4393,30.3928 C31.4393,26.2498 34.7973,22.8918 38.9403,22.8918 C43.0833,22.8918 46.4413,26.2498 46.4413,30.3928 C46.4413,34.5358 43.0833,37.8938 38.9403,37.8938 C34.7973,37.8938 31.4393,34.5358 31.4393,30.3928" id="Fill-13" fill="#FFFFFF"></path>
                <path d="M31.4393,30.3928 C31.4393,26.2498 34.7973,22.8918 38.9403,22.8918 C43.0833,22.8918 46.4413,26.2498 46.4413,30.3928 C46.4413,34.5358 43.0833,37.8938 38.9403,37.8938 C34.7973,37.8938 31.4393,34.5358 31.4393,30.3928 Z" id="Stroke-14" stroke="#C92859"></path>
                <g id="Group-17" transform="translate(38.940300, 26.137900)">
                    <polyline id="Fill-15" fill="#FFFFFF" points="7.10542736e-15 0 7.10542736e-15 4.255 3.132 4.255"></polyline>
                    <polyline id="Stroke-16" stroke="#C92859" stroke-linecap="round" stroke-linejoin="round" points="7.10542736e-15 0 7.10542736e-15 4.255 3.132 4.255"></polyline>
                </g>
            </g>
        </g>
    </g>
</svg>