<?xml version="1.0" encoding="UTF-8"?>
<svg width="49px" height="39px" viewBox="0 0 49 39" version="1.1" xmlns="http://www.w3.org/2000/svg" xmlns:xlink="http://www.w3.org/1999/xlink">
    <title>Group 11</title>
    <g id="PLP-/-KHA" stroke="none" stroke-width="1" fill="none" fill-rule="evenodd">
        <g id="1.会員登録画面#7＜ホーム画面＞1" transform="translate(-272.000000, -312.000000)">
            <g id="Group-11" transform="translate(273.000000, 314.000000)">
                <polyline id="Stroke-1" stroke="#C92859" points="43.156 9.4707 43.156 35.9497 4.108 35.9497 4.108 9.4707"></polyline>
                <polygon id="Stroke-3" stroke="#C92859" points="22.392 30.1212 29.167 30.1212 29.167 21.4892 22.392 21.4892"></polygon>
                <polygon id="Stroke-4" stroke="#C92859" points="29.151 30.1212 35.925 30.1212 35.925 21.4892 29.151 21.4892"></polygon>
                <g id="Group-8" stroke="#C92859">
                    <polygon id="Stroke-5" points="11.339 35.9492 17.658 35.9492 17.658 23.8142 11.339 23.8142"></polygon>
                    <polyline id="Stroke-7" stroke-width="3" points="0 10.918 23.632 0 47.264 10.918"></polyline>
                </g>
                <polygon id="Fill-9" fill="#C92859" points="19.9 13.2332 27.364 13.2332 27.364 10.8912 19.9 10.8912"></polygon>
                <polygon id="Fill-10" fill="#C92859" points="22.461 15.7942 24.803 15.7942 24.803 8.3302 22.461 8.3302"></polygon>
            </g>
        </g>
    </g>
</svg>