<?xml version="1.0" encoding="UTF-8"?>
<svg width="39px" height="39px" viewBox="0 0 39 39" version="1.1" xmlns="http://www.w3.org/2000/svg" xmlns:xlink="http://www.w3.org/1999/xlink">
    <title>Group 11 Copy</title>
    <g id="PLP-/-KHA" stroke="none" stroke-width="1" fill="none" fill-rule="evenodd">
        <g id="あなたへのメッセージ画面#1（処方せんメッセージ）" transform="translate(-12.000000, -398.000000)">
            <g id="Group-11-Copy" transform="translate(13.000000, 399.000000)">
                <path d="M37.475,18.738 C37.475,29.086 29.086,37.476 18.737,37.476 C8.389,37.476 0,29.086 0,18.738 C0,8.39 8.389,0 18.737,0 C29.086,0 37.475,8.39 37.475,18.738" id="Fill-1" fill="#FFFFFF"></path>
                <path d="M37.475,18.738 C37.475,29.086 29.086,37.476 18.737,37.476 C8.389,37.476 0,29.086 0,18.738 C0,8.39 8.389,0 18.737,0 C29.086,0 37.475,8.39 37.475,18.738 Z" id="Stroke-3" stroke="#468CD2"></path>
                <path d="M20.9574,26.9033 C20.9024,26.9293 20.8404,26.9363 20.7984,26.9853 C20.2494,27.6373 19.6324,27.9813 18.9664,28.0093 C17.8874,28.0483 16.9834,27.3243 16.6914,27.0593 L16.3754,24.9393 C16.5494,24.1323 16.4374,23.2953 16.2744,22.6373 C17.0354,23.0753 17.8684,23.3253 18.7474,23.3253 C19.6204,23.3253 20.4464,23.0733 21.2014,22.6343 C21.0034,23.4213 20.8774,24.4613 21.2304,25.4033 L20.9574,26.9033 Z M13.9384,18.4233 C13.5194,17.3383 13.2814,16.0963 13.2814,14.7783 C13.2814,14.7063 13.2874,14.6363 13.2884,14.5653 C14.3114,14.0143 15.8674,12.8203 16.4964,10.4103 C18.3194,12.6953 21.2354,14.3423 22.2334,14.3423 C22.3954,14.3423 22.5414,14.2533 22.6174,14.1163 C23.0904,14.3603 23.6344,14.5943 24.2134,14.7833 C24.2114,19.0103 21.7604,22.4483 18.7474,22.4483 C16.6774,22.4483 14.8734,20.8263 13.9454,18.4413 C13.9434,18.4343 13.9404,18.4283 13.9384,18.4233 L13.9384,18.4233 Z M12.5754,17.0083 C12.4134,16.8583 12.3234,16.5043 12.3234,16.0123 C12.3234,15.7083 12.3664,15.4923 12.4254,15.3293 C12.4534,15.9163 12.5244,16.4863 12.6364,17.0363 C12.6184,17.0243 12.5914,17.0233 12.5754,17.0083 L12.5754,17.0083 Z M25.0654,15.2163 C25.1484,15.3853 25.2124,15.6343 25.2124,16.0123 C25.2124,16.5043 25.1234,16.8583 24.9614,17.0083 C24.9284,17.0393 24.8774,17.0463 24.8354,17.0643 C24.9584,16.4693 25.0414,15.8553 25.0654,15.2163 L25.0654,15.2163 Z M25.7374,27.1653 C25.6124,27.1263 25.4934,27.0873 25.3704,27.0483 C25.3364,26.9043 25.2724,26.7513 25.1114,26.6013 C24.5984,26.1213 22.2804,24.6253 22.0184,24.4563 C21.9834,24.4343 21.9444,24.4303 21.9074,24.4183 C21.8324,23.6783 22.0154,22.9173 22.1804,22.4053 C22.5684,22.7203 23.1464,23.0613 23.8884,23.0933 C23.9254,23.0953 23.9634,23.0953 24.0004,23.0953 C24.9144,23.0953 25.8064,22.6163 26.6554,21.6703 C29.3844,18.6243 26.4984,10.7373 25.1964,8.3623 C24.1974,6.5383 22.6874,5.2143 21.1604,4.8213 C20.1454,4.5593 19.1444,4.7123 18.2604,5.2493 C16.1334,4.3803 13.8844,5.5423 12.3394,8.3623 C11.0374,10.7373 8.1514,18.6243 10.8814,21.6703 C11.7294,22.6163 12.6224,23.0953 13.5354,23.0953 C13.5734,23.0953 13.6104,23.0953 13.6474,23.0933 C14.3584,23.0623 14.9214,22.7473 15.3094,22.4443 C15.4824,22.9833 15.6674,23.7783 15.5644,24.5373 C15.1074,24.8613 13.2754,26.1713 12.8524,26.6203 C12.7884,26.6883 12.7484,26.7673 12.7084,26.8463 C12.3854,26.9523 12.0764,27.0583 11.7364,27.1653 C8.6244,28.1483 5.4064,29.1653 4.7824,31.3093 C4.7144,31.5423 4.8484,31.7863 5.0814,31.8533 C5.1214,31.8653 5.1634,31.8713 5.2034,31.8713 C5.3944,31.8713 5.5684,31.7463 5.6244,31.5543 C6.1174,29.8603 9.2434,28.8723 12.0004,28.0023 C12.2594,27.9203 12.5084,27.8393 12.7614,27.7583 C12.9624,28.1413 13.3544,28.5453 13.9174,29.0533 C13.3834,29.5853 12.2784,30.5223 11.5754,31.0923 C11.3874,31.2443 11.3584,31.5203 11.5114,31.7093 C11.6654,31.8973 11.9414,31.9253 12.1274,31.7723 C12.3654,31.5793 14.4614,29.8713 14.8934,29.2763 C15.0254,29.0933 14.9974,28.8403 14.8284,28.6903 C14.3854,28.2993 13.4644,27.4853 13.4904,27.2223 C13.7314,26.9653 14.7304,26.2163 15.5874,25.5983 L15.8354,27.2603 C15.8344,27.2663 15.8374,27.2713 15.8374,27.2763 L17.3414,37.3113 C17.3734,37.5293 17.5604,37.6853 17.7734,37.6853 C17.7954,37.6853 17.8174,37.6833 17.8384,37.6813 C18.0784,37.6443 18.2434,37.4223 18.2074,37.1823 L16.8714,28.2713 C17.3904,28.5863 18.0904,28.8883 18.8764,28.8883 C18.9154,28.8883 18.9564,28.8873 18.9954,28.8853 C19.6134,28.8613 20.1854,28.6363 20.7124,28.2473 L19.0654,37.0383 C19.0214,37.2763 19.1804,37.5043 19.4184,37.5473 C19.4444,37.5533 19.4714,37.5553 19.4974,37.5553 C19.7054,37.5553 19.8894,37.4063 19.9274,37.1953 L22.0944,25.5513 C22.9464,26.1103 24.2094,26.9563 24.5294,27.2483 C24.5294,27.4443 24.0404,27.9233 23.0764,28.6723 C22.9824,28.7463 22.9224,28.8523 22.9104,28.9703 C22.8974,29.0883 22.9324,29.2063 23.0074,29.2973 C23.4944,29.8883 25.7904,31.5923 26.0504,31.7853 C26.2474,31.9303 26.5194,31.8873 26.6634,31.6933 C26.8074,31.4983 26.7664,31.2243 26.5714,31.0803 C25.7794,30.4943 24.6034,29.5893 24.0054,29.0563 C24.5664,28.6023 24.9384,28.2403 25.1624,27.9023 C25.2664,27.9343 25.3674,27.9683 25.4734,28.0013 C28.2304,28.8723 31.3564,29.8603 31.8504,31.5543 C31.9064,31.7463 32.0814,31.8713 32.2714,31.8713 C32.3114,31.8713 32.3534,31.8653 32.3944,31.8533 C32.6264,31.7863 32.7594,31.5423 32.6924,31.3093 C32.0674,29.1653 28.8504,28.1483 25.7374,27.1653 L25.7374,27.1653 Z" id="Fill-5" fill="#468CD2"></path>
                <line x1="11.9081" y1="31.4487" x2="15.3511" y2="36.9777" id="Stroke-7" stroke="#468CD2"></line>
                <line x1="26.267" y1="31.4487" x2="22.824" y2="36.9777" id="Stroke-9" stroke="#468CD2"></line>
            </g>
        </g>
    </g>
</svg>