<?xml version="1.0" encoding="UTF-8"?>
<svg width="19px" height="19px" viewBox="0 0 19 19" version="1.1" xmlns="http://www.w3.org/2000/svg" xmlns:xlink="http://www.w3.org/1999/xlink">
    <title>Group 10</title>
    <defs>
        <polygon id="path-1" points="0 0 19 0 19 19 0 19"></polygon>
    </defs>
    <g id="処方箋送信（共通）" stroke="none" stroke-width="1" fill="none" fill-rule="evenodd">
        <g id="必要事項入力画面1" transform="translate(-27.000000, -1102.000000)">
            <g id="Group-10" transform="translate(27.000000, 1102.000000)">
                <path d="M6.90814918,6.09938009 C6.77564356,5.9668733 6.56060589,5.9668733 6.42810028,6.09938009 L2.50744854,10.0208239 C0.591795987,11.9357364 0.488063023,14.9372045 2.27575301,16.7241532 C4.063443,18.5118592 7.06488438,18.4081253 8.97977976,16.4932128 L12.9011887,12.5725262 C13.0329371,12.4400194 13.0329371,12.2249798 12.9011887,12.092473 L6.90814918,6.09938009 Z" id="Fill-1" fill="#FFFFFF"></path>
                <path d="M12.0918508,12.9006199 C12.2243564,13.0331267 12.4393941,13.0331267 12.5718997,12.9006199 L16.4925515,8.97993324 C18.408204,7.06426362 18.511937,4.06355267 16.724247,2.27584676 C14.936557,0.488140842 11.9351156,0.59187473 10.0202202,2.50678717 L6.09881133,6.42823102 C5.96706289,6.55998063 5.96706289,6.7757774 6.09881133,6.90752701 L12.0918508,12.9006199 Z" id="Fill-3" fill="#64B4E6"></path>
                <path d="M14.0027692,1.9339384 C12.9623977,1.9339384 11.9212767,2.32887163 11.1290054,3.12098629 L3.11934456,11.1290631 C1.53555144,12.7140419 1.53555144,15.2919741 3.11934456,16.8762035 C4.65591622,18.4124712 7.33254908,18.4124712 8.86837119,16.8762035 L16.878032,8.86812661 C17.6448188,8.10074211 18.0683129,7.08081018 18.0683129,5.99568055 C18.0683129,4.91055091 17.6448188,3.88912018 16.878032,3.12098629 C16.0857607,2.32887163 15.0446397,1.9339384 14.0027692,1.9339384 M5.99310833,19 C4.65891441,19 3.40342293,18.4799171 2.46049262,17.5349251 C0.513169127,15.5879867 0.513169127,12.4187787 2.46049262,10.4703415 L10.4701534,2.46301404 C12.4182265,0.512328653 15.5865623,0.512328653 17.536884,2.46301404 C18.4813134,3.40725668 19,4.66100107 19,5.99568055 C19,7.33110942 18.4813134,8.58410442 17.536884,9.52684826 L9.52722314,17.5349251 C8.58429282,18.4799171 7.32880135,19 5.99310833,19" id="Fill-5" fill="#0B63B0"></path>
                <g id="Group-9">
                    <mask id="mask-2" fill="white">
                        <use xlink:href="#path-1"></use>
                    </mask>
                    <g id="Clip-8"></g>
                    <path d="M13.5561014,1.70636174 C12.5557366,1.70636174 11.6168976,2.09441285 10.9120088,2.7983725 L2.7951537,10.913273 C1.33904184,12.370553 1.33904184,14.7429046 2.7951537,16.1994253 C4.20417169,17.6081039 6.67583992,17.6081039 8.08485791,16.1994253 L16.2009535,8.08528411 C16.9073614,7.37828688 17.2962656,6.43967402 17.2962656,5.4425877 C17.2962656,4.44398259 16.9073614,3.50536973 16.2009535,2.7983725 C15.4968243,2.09441285 14.5572257,1.70636174 13.5561014,1.70636174 M5.44000581,18.007546 C4.27329333,18.007546 3.10582128,17.5838033 2.25813175,16.7363179 C0.505024724,14.9828736 0.505024724,12.1298247 2.25813175,10.3763804 L10.3749869,2.26147986 C11.223436,1.41399446 12.3529291,0.946966215 13.5561014,0.946966215 C14.7600332,0.946966215 15.8902859,1.41399446 16.7379754,2.26147986 C17.5879437,3.11200285 18.055844,4.24122399 18.055844,5.4425877 C18.055844,6.64243262 17.5879437,7.77165376 16.738735,8.62217675 L8.62187986,16.7363179 C7.77419033,17.5838033 6.60747786,18.007546 5.44000581,18.007546 M13.5561014,0.759395521 C12.3035565,0.759395521 11.1277291,1.24692745 10.245099,2.13086383 L2.12824384,10.2457644 C0.302217282,12.0721106 0.302217282,15.0428659 2.12824384,16.8676933 C3.01239313,17.7531485 4.18822055,18.2406804 5.43924623,18.2406804 C6.69179106,18.2406804 7.86837806,17.7531485 8.75176778,16.8676933 L16.8686229,8.75279278 C17.7535318,7.86885639 18.2404216,6.69331212 18.2404216,5.4425877 C18.2404216,4.19186328 17.7535318,3.01631901 16.8686229,2.13086383 C15.9844736,1.24692745 14.8078866,0.759395521 13.5561014,0.759395521 M5.43924623,19.0000759 C3.98465353,19.0000759 2.61817193,18.4335669 1.59046231,17.4038266 C-0.530280681,15.2835943 -0.530280681,11.8313822 1.59122188,9.70887174 L9.70731745,1.5939712 C10.7335079,0.566509059 12.1007491,0 13.5561014,0 C15.0114536,0 16.3786948,0.566509059 17.4056449,1.5939712 C18.4341141,2.62295213 19,3.98910467 19,5.4425877 C19,6.89607073 18.4341141,8.26298267 17.4056449,9.28968541 L9.28954931,17.4045859 C8.26259926,18.4335669 6.89459851,19.0000759 5.43924623,19.0000759" id="Fill-7" fill="#0B63B0" mask="url(#mask-2)"></path>
                </g>
            </g>
        </g>
    </g>
</svg>