<?xml version="1.0" encoding="UTF-8"?>
<svg width="17px" height="15px" viewBox="0 0 17 15" version="1.1" xmlns="http://www.w3.org/2000/svg" xmlns:xlink="http://www.w3.org/1999/xlink">
    <title>Group 17</title>
    <defs>
        <polygon id="path-1" points="0 0 17 0 17 15 0 15"></polygon>
    </defs>
    <g id="オンライン服薬指導（共通）" stroke="none" stroke-width="1" fill="none" fill-rule="evenodd">
        <g id="MPP-SRA-A-1.申込一覧画面1" transform="translate(-24.000000, -168.000000)">
            <g id="Group-17" transform="translate(24.000000, 168.000000)">
                <polygon id="Fill-1" fill="#FFFFFF" points="1 14 17 14 17 4 1 4"></polygon>
                <polygon id="Fill-2" fill="#64B4E6" points="3 9 5 9 5 7 3 7"></polygon>
                <polygon id="Fill-3" fill="#64B4E6" points="6 9 8 9 8 7 6 7"></polygon>
                <polygon id="Fill-4" fill="#64B4E6" points="9 9 11 9 11 7 9 7"></polygon>
                <polygon id="Fill-5" fill="#64B4E6" points="12 9 14 9 14 7 12 7"></polygon>
                <polygon id="Fill-6" fill="#64B4E6" points="3 12 5 12 5 10 3 10"></polygon>
                <polygon id="Fill-7" fill="#64B4E6" points="6 12 8 12 8 10 6 10"></polygon>
                <polygon id="Fill-8" fill="#64B4E6" points="9 12 11 12 11 10 9 10"></polygon>
                <polygon id="Fill-9" fill="#64B4E6" points="12 12 14 12 14 10 12 10"></polygon>
                <g id="Group-16">
                    <mask id="mask-2" fill="white">
                        <use xlink:href="#path-1"></use>
                    </mask>
                    <g id="Clip-11"></g>
                    <path d="M1.06680015,13.9119232 L15.9339241,13.9119232 L15.9339241,5.36782074 L1.06680015,5.36782074 L1.06680015,13.9119232 Z M13.0275636,1.58655055 L13.0275636,2.64799866 C13.0275636,3.45647446 12.3504026,3.80116772 11.9267243,3.80116772 C11.4697312,3.80116772 10.8222639,3.45647446 10.8222639,2.64799866 L10.8222639,1.58655055 L6.05461594,1.58655055 L6.05461594,2.64799866 C6.05461594,3.45647446 5.40280322,3.80116772 4.95450092,3.80116772 C4.44319005,3.80116772 3.85004047,3.45647446 3.85004047,2.64799866 L3.85004047,1.58655055 L0,1.58655055 L0,5.06307048 L0,15 L17.0007242,15 L17.0007242,5.06307048 L17.0007242,1.58655055 L13.0275636,1.58655055 Z" id="Fill-10" fill="#0B63B0" mask="url(#mask-2)"></path>
                    <path d="M4.95442849,2.85703367 C4.8371022,2.85703367 4.74222724,2.76457303 4.74222724,2.5478453 L4.74222724,0.695673828 C4.74222724,0.478946097 4.8371022,0.390923571 4.95442849,0.390923571 C5.07175478,0.390923571 5.16662974,0.478946097 5.16662974,0.695673828 L5.16662974,2.5478453 C5.16662974,2.76457303 5.07175478,2.85703367 4.95442849,2.85703367" id="Fill-12" fill="#64B4E6" mask="url(#mask-2)"></path>
                    <path d="M4.95442849,3.22687621 C4.6777702,3.22687621 4.38010906,3.01458659 4.38010906,2.5478453 L4.38010906,0.695673828 C4.38010906,-0.231891276 5.52874792,-0.231891276 5.52874792,0.695673828 L5.52874792,2.5478453 C5.52874792,3.01458659 5.23108678,3.22687621 4.95442849,3.22687621" id="Fill-13" fill="#64B4E6" mask="url(#mask-2)"></path>
                    <path d="M11.9269416,2.85703367 C11.8096153,2.85703367 11.7147403,2.76457303 11.7147403,2.5478453 L11.7147403,0.695673828 C11.7147403,0.478946097 11.8096153,0.390923571 11.9269416,0.390923571 C12.0442679,0.390923571 12.1398671,0.478946097 12.1398671,0.695673828 L12.1398671,2.5478453 C12.1398671,2.76457303 12.0442679,2.85703367 11.9269416,2.85703367" id="Fill-14" fill="#64B4E6" mask="url(#mask-2)"></path>
                    <path d="M11.9269416,3.22687621 C11.6502833,3.22687621 11.3526222,3.01458659 11.3526222,2.5478453 L11.3526222,0.695673828 C11.3526222,-0.231891276 12.5019853,-0.231891276 12.5019853,0.695673828 L12.5019853,2.5478453 C12.5019853,3.01458659 12.2035999,3.22687621 11.9269416,3.22687621" id="Fill-15" fill="#64B4E6" mask="url(#mask-2)"></path>
                </g>
            </g>
        </g>
    </g>
</svg>