<?xml version="1.0" encoding="UTF-8"?>
<svg width="20px" height="35px" viewBox="0 0 20 35" version="1.1" xmlns="http://www.w3.org/2000/svg" xmlns:xlink="http://www.w3.org/1999/xlink">
    <title>icon_pin_hospital</title>
    <g id="Page-1" stroke="none" stroke-width="1" fill="none" fill-rule="evenodd">
        <g id="icon_pin_hospital">
            <g id="Group-5" fill-rule="nonzero">
                <path d="M10,0 C4.486,0 0,4.486 0,10 C0,19.848 6.304,16.82 9.623,33.081 C9.623,33.081 9.841,34.326 10,34.326 C10.159,34.326 10.377,33.081 10.377,33.081 C13.696,16.82 20,19.848 20,10 C20,4.486 15.514,0 10,0" id="Fill-1" fill="#003F87"></path>
                <path d="M10,17 C6.14,17 3,13.859 3,10 C3,6.141 6.14,3 10,3 C13.86,3 17,6.141 17,10 C17,13.859 13.86,17 10,17" id="Fill-3" fill="#FFFFFF"></path>
            </g>
            <rect id="Rectangle" fill="#003F87" x="8" y="5" width="4" height="10" rx="1"></rect>
            <rect id="Rectangle" fill="#003F87" transform="translate(10.000000, 10.000000) rotate(-270.000000) translate(-10.000000, -10.000000) " x="8" y="5" width="4" height="10" rx="1"></rect>
        </g>
    </g>
</svg>