<?xml version="1.0" encoding="UTF-8"?>
<svg width="43px" height="31px" viewBox="0 0 43 31" version="1.1" xmlns="http://www.w3.org/2000/svg" xmlns:xlink="http://www.w3.org/1999/xlink">
    <title>Group 16</title>
    <defs>
        <polygon id="path-1" points="0 0 42.0907 0 42.0907 30.7349 0 30.7349"></polygon>
    </defs>
    <g id="PCP" stroke="none" stroke-width="1" fill="none" fill-rule="evenodd">
        <g id="MPP-A-1.ホーム画面（登録あり：薬局選択中）" transform="translate(-275.000000, -210.000000)">
            <g id="Group-16" transform="translate(275.000000, 210.000000)">
                <g id="Group-3">
                    <mask id="mask-2" fill="white">
                        <use xlink:href="#path-1"></use>
                    </mask>
                    <g id="Clip-2"></g>
                    <path d="M41.091,11.604 C41.091,12.983 39.969,14.104 38.591,14.104 L38.43,14.104 C38.27,14.104 38.119,14.18 38.026,14.31 C37.931,14.44 37.905,14.606 37.954,14.758 L38.703,17.065 L34.172,14.182 C34.091,14.131 33.999,14.104 33.904,14.104 L15.5,14.104 C14.122,14.104 13,12.983 13,11.604 L13,3.5 C13,2.121 14.122,1 15.5,1 L38.591,1 C39.969,1 41.091,2.121 41.091,3.5 L41.091,11.604 Z M29.09,15.5 L29.09,23.604 C29.09,24.983 27.968,26.104 26.59,26.104 L9.788,26.104 C9.693,26.104 9.599,26.131 9.519,26.182 L4.988,29.066 L5.737,26.758 C5.786,26.606 5.76,26.44 5.666,26.31 C5.572,26.18 5.422,26.104 5.261,26.104 L3.5,26.104 C2.121,26.104 1,24.983 1,23.604 L1,15.5 C1,14.122 2.121,13 3.5,13 L12.295,13 C12.836,14.237 14.068,15.104 15.5,15.104 L29.05,15.104 C29.072,15.234 29.09,15.365 29.09,15.5 L29.09,15.5 Z M38.591,0 L15.5,0 C13.57,0 12,1.57 12,3.5 L12,11.604 C12,11.74 12.025,11.869 12.04,12 L3.5,12 C1.57,12 0,13.571 0,15.5 L0,23.604 C0,25.534 1.57,27.104 3.5,27.104 L4.573,27.104 L3.608,30.081 C3.543,30.281 3.611,30.501 3.777,30.63 C3.867,30.7 3.975,30.735 4.083,30.735 C4.176,30.735 4.27,30.708 4.352,30.657 L9.933,27.104 L26.59,27.104 C28.52,27.104 30.09,25.534 30.09,23.604 L30.09,15.5 C30.09,15.366 30.076,15.234 30.058,15.104 L33.758,15.104 L39.34,18.656 C39.422,18.708 39.515,18.734 39.608,18.734 C39.716,18.734 39.824,18.699 39.914,18.629 C40.081,18.5 40.149,18.28 40.084,18.08 L39.106,15.066 C40.792,14.817 42.091,13.359 42.091,11.604 L42.091,3.5 C42.091,1.57 40.521,0 38.591,0 L38.591,0 Z" id="Fill-1" fill="#999999" mask="url(#mask-2)"></path>
                </g>
                <path d="M27.0456,6.0552 C26.2166,6.0552 25.5456,6.7262 25.5456,7.5552 C25.5456,8.3832 26.2166,9.0552 27.0456,9.0552 C27.8746,9.0552 28.5456,8.3832 28.5456,7.5552 C28.5456,6.7262 27.8746,6.0552 27.0456,6.0552" id="Fill-4" fill="#999999"></path>
                <path d="M20.5261,6.0552 C19.6971,6.0552 19.0261,6.7262 19.0261,7.5552 C19.0261,8.3832 19.6971,9.0552 20.5261,9.0552 C21.3551,9.0552 22.0261,8.3832 22.0261,7.5552 C22.0261,6.7262 21.3551,6.0552 20.5261,6.0552" id="Fill-6" fill="#999999"></path>
                <path d="M33.5651,6.0552 C32.7361,6.0552 32.0651,6.7262 32.0651,7.5552 C32.0651,8.3832 32.7361,9.0552 33.5651,9.0552 C34.3941,9.0552 35.0651,8.3832 35.0651,7.5552 C35.0651,6.7262 34.3941,6.0552 33.5651,6.0552" id="Fill-8" fill="#999999"></path>
                <path d="M14.1667,19.8677 C14.1667,20.6957 14.8377,21.3677 15.6667,21.3677 C16.4957,21.3677 17.1667,20.6957 17.1667,19.8677 C17.1667,19.0387 16.4957,18.3677 15.6667,18.3677 C14.8377,18.3677 14.1667,19.0387 14.1667,19.8677" id="Fill-10" fill="#999999"></path>
                <path d="M9.1472,18.3677 C8.3192,18.3677 7.6472,19.0387 7.6472,19.8677 C7.6472,20.6957 8.3192,21.3677 9.1472,21.3677 C9.9762,21.3677 10.6472,20.6957 10.6472,19.8677 C10.6472,19.0387 9.9762,18.3677 9.1472,18.3677" id="Fill-12" fill="#999999"></path>
                <path d="M22.1862,21.3677 C23.0152,21.3677 23.6862,20.6957 23.6862,19.8677 C23.6862,19.0387 23.0152,18.3677 22.1862,18.3677 C21.3572,18.3677 20.6862,19.0387 20.6862,19.8677 C20.6862,20.6957 21.3572,21.3677 22.1862,21.3677" id="Fill-14" fill="#999999"></path>
            </g>
        </g>
    </g>
</svg>