<?xml version="1.0" encoding="UTF-8"?>
<svg width="20px" height="14px" viewBox="0 0 20 14" version="1.1" xmlns="http://www.w3.org/2000/svg" xmlns:xlink="http://www.w3.org/1999/xlink">
    <title>Group 13</title>
    <defs>
        <polygon id="path-1" points="0 14 20 14 20 0 0 0"></polygon>
    </defs>
    <g id="オンライン服薬指導（共通）" stroke="none" stroke-width="1" fill="none" fill-rule="evenodd">
        <g id="MPP-SRA-C-1.申込詳細画面1" transform="translate(-26.000000, -834.000000)">
            <g id="Group-13" transform="translate(26.000000, 834.000000)">
                <polygon id="Fill-1" fill="#FFFFFF" points="1 14 20 14 20 1 1 1"></polygon>
                <g id="Group-12">
                    <path d="M9.35365326,5.6607659 C9.35365326,6.96134393 8.30234904,8.01625723 7.00461162,8.01625723 C5.70759475,8.01625723 4.65556997,6.96134393 4.65556997,5.6607659 C4.65556997,4.36018786 5.70759475,3.30527457 7.00461162,3.30527457 C8.30234904,3.30527457 9.35365326,4.36018786 9.35365326,5.6607659" id="Fill-2" fill="#64B4E6"></path>
                    <path d="M7.00475573,9.10484104 C3.25349474,9.10484104 2.30811356,11.5058526 2.30811356,12.7666908 C3.38824038,14.1850434 5.08733247,12.9711705 7.00475573,12.9711705 C8.92217899,12.9711705 10.6212711,14.1850434 11.7013979,12.7666908 C11.7013979,11.6489162 10.8849978,9.10484104 7.00475573,9.10484104" id="Fill-4" fill="#64B4E6"></path>
                    <mask id="mask-2" fill="white">
                        <use xlink:href="#path-1"></use>
                    </mask>
                    <g id="Clip-7"></g>
                    <path d="M1.33592737,12.6604046 L18.6633521,12.6604046 L18.6633521,1.33887283 L1.33592737,1.33887283 L1.33592737,12.6604046 Z M0,14 L20,14 L20,0 L0,0 L0,14 Z" id="Fill-6" fill="#0B63B0" mask="url(#mask-2)"></path>
                    <line x1="11.9406975" y1="7.28475434" x2="16.4651247" y2="7.28475434" id="Fill-8" fill="#FFFFFF" mask="url(#mask-2)"></line>
                    <polygon id="Fill-9" fill="#0B63B0" mask="url(#mask-2)" points="11.9404813 7.95447977 16.4649085 7.95447977 16.4649085 6.61488439 11.9404813 6.61488439"></polygon>
                    <line x1="11.9406975" y1="4.7441474" x2="16.4651247" y2="4.7441474" id="Fill-10" fill="#FFFFFF" mask="url(#mask-2)"></line>
                    <polygon id="Fill-11" fill="#0B63B0" mask="url(#mask-2)" points="11.9404813 5.41401734 16.4649085 5.41401734 16.4649085 4.07442197 11.9404813 4.07442197"></polygon>
                </g>
            </g>
        </g>
    </g>
</svg>