<?xml version="1.0" encoding="UTF-8"?>
<svg width="34px" height="38px" viewBox="0 0 34 38" version="1.1" xmlns="http://www.w3.org/2000/svg" xmlns:xlink="http://www.w3.org/1999/xlink">
    <title>Group 9</title>
    <defs>
        <polygon id="path-1" points="0 0 33.953 0 33.953 38.004 0 38.004"></polygon>
    </defs>
    <g id="PCP" stroke="none" stroke-width="1" fill="none" fill-rule="evenodd">
        <g id="MPP-A-1.ホーム画面（登録あり：薬局選択中）" transform="translate(-62.000000, -206.000000)">
            <g id="Group-9" transform="translate(62.000000, 206.000000)">
                <mask id="mask-2" fill="white">
                    <use xlink:href="#path-1"></use>
                </mask>
                <g id="Clip-2"></g>
                <path d="M13.08,37.004 L32.953,37.004 L32.953,7.913 L13.08,7.913 L13.08,37.004 Z M5.929,1.68 L12.08,7.625 L12.08,36.325 L5.929,30.379 L5.929,1.68 Z M33.453,6.913 L12.782,6.913 L5.777,0.142 C5.632,0.001 5.417,-0.04 5.234,0.041 C5.049,0.119 4.929,0.301 4.929,0.501 L4.929,4.164 L0.667,2.65 C0.514,2.595 0.345,2.618 0.211,2.712 C0.079,2.806 0,2.958 0,3.12 L0,33.21 C0,33.422 0.133,33.61 0.333,33.681 L12.413,37.975 C12.467,37.994 12.524,38.004 12.58,38.004 L33.453,38.004 C33.729,38.004 33.953,37.78 33.953,37.504 L33.953,7.413 C33.953,7.137 33.729,6.913 33.453,6.913 L33.453,6.913 Z" id="Fill-1" fill="#468CD2" mask="url(#mask-2)"></path>
                <path d="M16.223,14.848 L29.897,14.848 L29.897,11.43 L16.223,11.43 L16.223,14.848 Z M15.723,15.848 L30.397,15.848 C30.673,15.848 30.897,15.624 30.897,15.348 L30.897,10.93 C30.897,10.653 30.673,10.43 30.397,10.43 L15.723,10.43 C15.447,10.43 15.223,10.653 15.223,10.93 L15.223,15.348 C15.223,15.624 15.447,15.848 15.723,15.848 L15.723,15.848 Z" id="Fill-3" fill="#468CD2" mask="url(#mask-2)"></path>
                <path d="M15.7231,18.6485 L21.4561,18.6485 C21.7331,18.6485 21.9561,18.4245 21.9561,18.1485 C21.9561,17.8725 21.7331,17.6485 21.4561,17.6485 L15.7231,17.6485 C15.4471,17.6485 15.2231,17.8725 15.2231,18.1485 C15.2231,18.4245 15.4471,18.6485 15.7231,18.6485" id="Fill-4" fill="#468CD2" mask="url(#mask-2)"></path>
                <path d="M15.7231,21.3214 L25.3961,21.3214 C25.6731,21.3214 25.8961,21.0974 25.8961,20.8214 C25.8961,20.5454 25.6731,20.3214 25.3961,20.3214 L15.7231,20.3214 C15.4471,20.3214 15.2231,20.5454 15.2231,20.8214 C15.2231,21.0974 15.4471,21.3214 15.7231,21.3214" id="Fill-5" fill="#468CD2" mask="url(#mask-2)"></path>
                <path d="M16.223,28.799 L29.897,28.799 L29.897,25.382 L16.223,25.382 L16.223,28.799 Z M15.723,29.799 L30.397,29.799 C30.673,29.799 30.897,29.575 30.897,29.299 L30.897,24.882 C30.897,24.606 30.673,24.382 30.397,24.382 L15.723,24.382 C15.447,24.382 15.223,24.606 15.223,24.882 L15.223,29.299 C15.223,29.575 15.447,29.799 15.723,29.799 L15.723,29.799 Z" id="Fill-6" fill="#468CD2" mask="url(#mask-2)"></path>
                <path d="M15.7231,32.4239 L21.4561,32.4239 C21.7331,32.4239 21.9561,32.1999 21.9561,31.9239 C21.9561,31.6479 21.7331,31.4239 21.4561,31.4239 L15.7231,31.4239 C15.4471,31.4239 15.2231,31.6479 15.2231,31.9239 C15.2231,32.1999 15.4471,32.4239 15.7231,32.4239" id="Fill-7" fill="#468CD2" mask="url(#mask-2)"></path>
                <path d="M15.7231,35.0968 L25.3961,35.0968 C25.6731,35.0968 25.8961,34.8728 25.8961,34.5968 C25.8961,34.3208 25.6731,34.0968 25.3961,34.0968 L15.7231,34.0968 C15.4471,34.0968 15.2231,34.3208 15.2231,34.5968 C15.2231,34.8728 15.4471,35.0968 15.7231,35.0968" id="Fill-8" fill="#468CD2" mask="url(#mask-2)"></path>
            </g>
        </g>
    </g>
</svg>