<?xml version="1.0" encoding="UTF-8"?>
<svg width="58px" height="58px" viewBox="0 0 58 58" version="1.1" xmlns="http://www.w3.org/2000/svg" xmlns:xlink="http://www.w3.org/1999/xlink">
    <title>Group 25</title>
    <defs>
        <path d="M0,29 C0,45.016152 12.983848,58 28.9997223,58 L28.9997223,58 C45.0164297,58 58,45.016152 58,29 L58,29 C58,12.9835703 45.0164297,0 28.9997223,0 L28.9997223,0 C12.983848,0 0,12.9835703 0,29 L0,29 Z" id="path-1"></path>
        <path d="M0,29 C0,45.016152 12.9840635,58 28.9998612,58 L28.9998612,58 C45.0164919,58 58,45.016152 58,29 L58,29 C58,12.9835703 45.0164919,0 28.9998612,0 L28.9998612,0 C12.9840635,0 0,12.9835703 0,29" id="path-3"></path>
        <path d="M0,24.3225806 L31.8064516,24.3225806 L31.8064516,0 L0,0 L0,24.3225806 Z M0.795366847,23.511623 L31.0113588,23.511623 L31.0113588,0.810957617 L0.795366847,0.810957617 L0.795366847,23.511623 Z" id="path-5"></path>
        <path d="M0,3.27419355 C0,5.08240608 1.46598101,6.5483871 3.27419355,6.5483871 L3.27419355,6.5483871 C5.08240608,6.5483871 6.5483871,5.08240608 6.5483871,3.27419355 L6.5483871,3.27419355 C6.5483871,1.46598101 5.08240608,0 3.27419355,0 L3.27419355,0 C1.46598101,0 0,1.46598101 0,3.27419355 L0,3.27419355 Z" id="path-7"></path>
    </defs>
    <g id="PCP" stroke="none" stroke-width="1" fill="none" fill-rule="evenodd">
        <g id="PP-A-4-1.処方せん撮影画面" transform="translate(-96.000000, -641.000000)">
            <g id="Group-25" transform="translate(96.000000, 641.000000)">
                <path d="M29,58 C45.0164297,58 58,45.016152 58,29 C58,12.983848 45.0164297,0 29,0 C12.983848,0 0,12.983848 0,29 C0,45.016152 12.983848,58 29,58" id="Fill-1" fill="#468CD2"></path>
                <g id="Group-5">
                    <mask id="mask-2" fill="white">
                        <use xlink:href="#path-1"></use>
                    </mask>
                    <g id="Clip-4"></g>
                    <polygon id="Fill-3" fill="#468CD2" mask="url(#mask-2)" points="-172.388472 257.777222 431.776945 257.777222 431.776945 -1050.44278 -172.388472 -1050.44278"></polygon>
                </g>
                <g id="Group-8">
                    <mask id="mask-4" fill="white">
                        <use xlink:href="#path-3"></use>
                    </mask>
                    <g id="Clip-7"></g>
                    <path d="M29.0001388,57.9999167 C45.0164919,57.9999167 58,45.0160687 58,28.9999167 C58,12.9837647 45.0164919,-8.32974294e-05 29.0001388,-8.32974294e-05 C12.9840635,-8.32974294e-05 0.000277656768,12.9837647 0.000277656768,28.9999167 C0.000277656768,45.0160687 12.9840635,57.9999167 29.0001388,57.9999167" id="Fill-6" fill="#468CD2" mask="url(#mask-4)"></path>
                </g>
                <g id="Group-12" transform="translate(12.161290, 16.838710)" fill="#FFFFFF">
                    <polygon id="Fill-9" points="0.802047311 25.3747884 32.8756484 25.3747884 32.8756484 0.818477853 0.802047311 0.818477853"></polygon>
                    <path d="M1.60381824,24.5563105 L32.0736011,24.5563105 L32.0736011,1.63723784 L1.60381824,1.63723784 L1.60381824,24.5563105 Z M0,26.1935484 L33.6774194,26.1935484 L33.6774194,0 L0,0 L0,26.1935484 Z" id="Fill-11"></path>
                </g>
                <g id="Group-16" transform="translate(13.096774, 17.774194)">
                    <mask id="mask-6" fill="white">
                        <use xlink:href="#path-5"></use>
                    </mask>
                    <g id="Clip-14"></g>
                    <polygon id="Fill-13" fill="#FFFFFF" mask="url(#mask-6)" points="0 24.3223012 31.8064516 24.3223012 31.8064516 0 0 0"></polygon>
                    <path d="M1.59045962,22.7009449 L30.215992,22.7009449 L30.215992,1.62163579 L1.59045962,1.62163579 L1.59045962,22.7009449 Z M-1.59018554,25.943937 L33.3966372,25.943937 L33.3966372,-1.62163579 L-1.59018554,-1.62163579 L-1.59018554,25.943937 Z" id="Fill-15" fill="#FFFFFF" mask="url(#mask-6)"></path>
                </g>
                <path d="M22.9193548,28.0645161 C24.7275674,28.0645161 26.1935484,26.5985351 26.1935484,24.7903226 C26.1935484,22.9818279 24.7275674,21.516129 22.9193548,21.516129 C21.1111423,21.516129 19.6451613,22.9818279 19.6451613,24.7903226 C19.6451613,26.5985351 21.1111423,28.0645161 22.9193548,28.0645161" id="Fill-17" fill="#468CD2"></path>
                <g id="Group-22" transform="translate(19.645161, 21.516129)">
                    <mask id="mask-8" fill="white">
                        <use xlink:href="#path-7"></use>
                    </mask>
                    <g id="Clip-20"></g>
                    <polygon id="Fill-19" fill="#468CD2" mask="url(#mask-8)" points="-193.177137 239.015565 420.733166 239.015565 420.733166 -1090.30448 -193.177137 -1090.30448"></polygon>
                    <path d="M3.27427819,6.54849995 C5.08249072,6.54849995 6.54847174,5.08251894 6.54847174,3.2743064 C6.54847174,1.46581173 5.08249072,0.000112854582 3.27427819,0.000112854582 C1.46606566,0.000112854582 8.46409362e-05,1.46581173 8.46409362e-05,3.2743064 C8.46409362e-05,5.08251894 1.46606566,6.54849995 3.27427819,6.54849995" id="Fill-21" fill="#468CD2" mask="url(#mask-8)"></path>
                </g>
                <polygon id="Fill-23" fill="#468CD2" points="43.0322581 35.3698305 35.1972016 26.1935484 27.5888249 34.2608136 23.2312875 31.1953183 14.0322581 38.7028876 14.0322581 40.2258065 43.0322581 40.2258065"></polygon>
            </g>
        </g>
    </g>
</svg>