<?xml version="1.0" encoding="UTF-8"?>
<svg width="30px" height="28px" viewBox="0 0 30 28" version="1.1" xmlns="http://www.w3.org/2000/svg" xmlns:xlink="http://www.w3.org/1999/xlink">
    <title>Group</title>
    <g id="薬局" stroke="none" stroke-width="1" fill="none" fill-rule="evenodd">
        <g id="MPP-B-3-4-2.(かかりつけ薬局)-利用薬局追加画面_OEM" transform="translate(-48.000000, -438.000000)" fill="#FFFFFF">
            <g id="Group" transform="translate(48.525741, 438.255232)">
                <path d="M5.06143645,4.57773139 L2.28929201,4.57773139 C1.02487089,4.57773139 0,3.5522803 0,2.28872138 C0,1.02516247 1.02487089,0 2.28929201,0 L5.06143645,0 C6.32556896,0 7.35043985,1.02516247 7.35043985,2.28872138 C7.35043985,3.5522803 6.32556896,4.57773139 5.06143645,4.57773139" id="Fill-4"></path>
                <path d="M26.6593423,4.57773139 L13.0087316,4.57773139 C11.7445991,4.57773139 10.7197282,3.5522803 10.7197282,2.28872138 C10.7197282,1.02516247 11.7445991,0 13.0087316,0 L26.6593423,0 C27.9234748,0 28.9483457,1.02516247 28.9483457,2.28872138 C28.9483457,3.5522803 27.9234748,4.57773139 26.6593423,4.57773139" id="Fill-6"></path>
                <path d="M5.06143645,16.0329984 L2.28929201,16.0329984 C1.02487089,16.0329984 0,15.0075473 0,13.7439884 C0,12.4804295 1.02487089,11.455267 2.28929201,11.455267 L5.06143645,11.455267 C6.32556896,11.455267 7.35043985,12.4804295 7.35043985,13.7439884 C7.35043985,15.0075473 6.32556896,16.0329984 5.06143645,16.0329984" id="Fill-8"></path>
                <path d="M26.6593423,16.0329984 L13.0087316,16.0329984 C11.7445991,16.0329984 10.7197282,15.0075473 10.7197282,13.7439884 C10.7197282,12.4804295 11.7445991,11.455267 13.0087316,11.455267 L26.6593423,11.455267 C27.9234748,11.455267 28.9483457,12.4804295 28.9483457,13.7439884 C28.9483457,15.0075473 27.9234748,16.0329984 26.6593423,16.0329984" id="Fill-10"></path>
                <path d="M5.06143645,27.4899682 L2.28929201,27.4899682 C1.02487089,27.4899682 0,26.4642285 0,25.2006696 C0,23.9371107 1.02487089,22.9119482 2.28929201,22.9119482 L5.06143645,22.9119482 C6.32556896,22.9119482 7.35043985,23.9371107 7.35043985,25.2006696 C7.35043985,26.4642285 6.32556896,27.4899682 5.06143645,27.4899682" id="Fill-12"></path>
                <path d="M26.6593423,27.4899682 L13.0087316,27.4899682 C11.7445991,27.4899682 10.7197282,26.4642285 10.7197282,25.2006696 C10.7197282,23.9371107 11.7445991,22.9119482 13.0087316,22.9119482 L26.6593423,22.9119482 C27.9234748,22.9119482 28.9483457,23.9371107 28.9483457,25.2006696 C28.9483457,26.4642285 27.9234748,27.4899682 26.6593423,27.4899682" id="Fill-14"></path>
            </g>
        </g>
    </g>
</svg>