<?xml version="1.0" encoding="UTF-8"?>
<svg width="36px" height="36px" viewBox="0 0 36 36" version="1.1" xmlns="http://www.w3.org/2000/svg" xmlns:xlink="http://www.w3.org/1999/xlink">
    <title>Group 12</title>
    <defs>
        <polygon id="path-1" points="0 0 36 0 36 36 0 36"></polygon>
    </defs>
    <g id="PCP" stroke="none" stroke-width="1" fill="none" fill-rule="evenodd">
        <g id="PP-A-3.店舗詳細画面" transform="translate(-275.000000, -453.000000)">
            <g id="Group-12" transform="translate(275.000000, 453.000000)">
                <path d="M36,18.0000866 C36,27.9410455 27.9410842,36 18,36 C8.05891577,36 0,27.9410455 0,18.0000866 C0,8.05895454 8.05891577,0 18,0 C27.9410842,0 36,8.05895454 36,18.0000866" id="Fill-1" fill="#468CD2"></path>
                <g id="Group-5">
                    <mask id="mask-2" fill="white">
                        <use xlink:href="#path-1"></use>
                    </mask>
                    <g id="Clip-4"></g>
                    <path d="M17.9999914,0.172339839 C8.16974109,0.172339839 0.172322357,8.16977006 0.172322357,18.0000345 C0.172322357,27.8301265 8.16974109,35.8277291 17.9999914,35.8277291 C27.8302417,35.8277291 35.8276604,27.8301265 35.8276604,18.0000345 C35.8276604,8.16977006 27.8302417,0.172339839 17.9999914,0.172339839 M17.9999828,36.0000689 C8.07478198,36.0000689 -1.72339591e-05,27.9252581 -1.72339591e-05,18.0000345 C-1.72339591e-05,8.07481081 8.07478198,0 17.9999828,0 C27.9252008,0 36,8.07481081 36,18.0000345 C36,27.9252581 27.9252008,36.0000689 17.9999828,36.0000689" id="Fill-3" fill="#468CD2" mask="url(#mask-2)"></path>
                </g>
                <path d="M18.4837526,30 C18.2744683,30 18.0639266,29.653505 17.885541,28.0164244 C17.707335,26.3796893 16.9456482,23.9321043 15.0333472,21.0011544 C13.1210463,18.0702045 11,15.778499 11,12.4421241 C11,7.64044711 14.4125006,5 18.4837526,5 C21.6778072,5 18.8333381,18.9814604 18.8333381,23.6284675 C18.8333381,28.2753019 18.4837526,30 18.4837526,30" id="Fill-6" fill="#FFFFFF"></path>
                <path d="M17.5162474,30 C17.7255317,30 17.9360734,29.653505 18.114459,28.0164244 C18.292665,26.3796893 19.0543518,23.9321043 20.9666528,21.0011544 C22.8789537,18.0702045 25,15.778499 25,12.4421241 C25,7.64044711 21.5874994,5 17.5162474,5 C14.3221928,5 17.1666619,18.9814604 17.1666619,23.6284675 C17.1666619,28.2753019 17.5162474,30 17.5162474,30" id="Fill-8" fill="#FFFFFF"></path>
                <path d="M14,13 C14,10.7908704 15.7908704,9 18,9 C20.2091296,9 22,10.7908704 22,13 C22,15.2091296 20.2091296,17 18,17 C15.7908704,17 14,15.2091296 14,13" id="Fill-10" fill="#468CD2"></path>
            </g>
        </g>
    </g>
</svg>