<?xml version="1.0" encoding="UTF-8"?>
<svg width="19px" height="19px" viewBox="0 0 19 19" version="1.1" xmlns="http://www.w3.org/2000/svg" xmlns:xlink="http://www.w3.org/1999/xlink">
    <title>Group 8</title>
    <g id="PCP" stroke="none" stroke-width="1" fill="none" fill-rule="evenodd">
        <g id="PP-A-4-1.処方せん撮影画面" transform="translate(-67.000000, -567.000000)">
            <g id="Group-8" transform="translate(67.000000, 567.000000)">
                <path d="M19,9.5000457 C19,14.7466629 14.7466833,19 9.5,19 C4.25331666,19 0,14.7466629 0,9.5000457 C0,4.25333712 4.25331666,0 9.5,0 C14.7466833,0 19,4.25333712 19,9.5000457" id="Fill-1" fill="#468CD2"></path>
                <path d="M10.7185164,9.49991384 L13.7475749,6.4709053 C14.0841273,6.13434879 14.0841273,5.58875847 13.747661,5.25228813 C13.4111086,4.91599012 12.8656109,4.91590396 12.5291446,5.25228813 L9.5,8.28138284 L6.47085538,5.25228813 C6.13438907,4.91590396 5.58880528,4.91590396 5.25233897,5.25228813 C4.91587265,5.58875847 4.91587265,6.13434879 5.25242513,6.4709053 L8.28148358,9.49991384 L5.25242513,12.5290085 C4.91587265,12.865565 4.91587265,13.4111554 5.25233897,13.7476257 C5.4206152,13.9158178 5.64110619,14 5.86159717,14 C6.08208816,14 6.30266531,13.9158178 6.47085538,13.7476257 L9.5,10.718531 L12.5291446,13.7476257 C12.6973347,13.9158178 12.9178257,14 13.1383167,14 C13.3588938,14 13.5793848,13.9158178 13.747661,13.7476257 C14.0841273,13.4111554 14.0841273,12.865565 13.7475749,12.5290085 L10.7185164,9.49991384 Z" id="Fill-6" fill="#FFFFFF"></path>
            </g>
        </g>
    </g>
</svg>