<?xml version="1.0" encoding="UTF-8"?>
<svg width="25px" height="25px" viewBox="0 0 25 25" version="1.1" xmlns="http://www.w3.org/2000/svg" xmlns:xlink="http://www.w3.org/1999/xlink">
    <title>Group 9</title>
    <g id="PLP-/-KHA" stroke="none" stroke-width="1" fill="none" fill-rule="evenodd">
        <g id="1.会員登録画面#7＜ホーム画面＞1" transform="translate(-327.000000, -48.000000)">
            <g id="Group-9" transform="translate(327.000000, 48.000000)">
                <path d="M24.5,12.5 C24.5,19.128 19.127,24.5 12.5,24.5 C5.873,24.5 0.5,19.128 0.5,12.5 C0.5,5.873 5.873,0.5 12.5,0.5 C19.127,0.5 24.5,5.873 24.5,12.5" id="Fill-1" fill="#FFFFFF"></path>
                <path d="M12.5,1 C6.159,1 1,6.159 1,12.5 C1,18.841 6.159,24 12.5,24 C18.841,24 24,18.841 24,12.5 C24,6.159 18.841,1 12.5,1 M12.5,25 C5.607,25 0,19.393 0,12.5 C0,5.607 5.607,0 12.5,0 C19.393,0 25,5.607 25,12.5 C25,19.393 19.393,25 12.5,25" id="Fill-3" fill="#468CD2"></path>
                <path d="M17.2676,9.7021 C17.2676,12.3361 15.1336,14.4711 12.4996,14.4711 C9.8666,14.4711 7.7316,12.3361 7.7316,9.7021 C7.7316,7.0691 9.8666,4.9341 12.4996,4.9341 C15.1336,4.9341 17.2676,7.0691 17.2676,9.7021" id="Fill-5" fill="#468CD2"></path>
                <path d="M12.5,16.6738 C8.132,16.6738 4.417,17.9618 2.967,19.7678 C5.159,22.6398 8.608,24.4998 12.5,24.4998 C16.392,24.4998 19.84,22.6398 22.033,19.7678 C20.583,17.9618 16.867,16.6738 12.5,16.6738" id="Fill-7" fill="#468CD2"></path>
            </g>
        </g>
    </g>
</svg>