<?xml version="1.0" encoding="UTF-8"?>
<svg width="15px" height="19px" viewBox="0 0 15 19" version="1.1" xmlns="http://www.w3.org/2000/svg" xmlns:xlink="http://www.w3.org/1999/xlink">
    <title>Group 11</title>
    <g id="オンライン服薬指導（共通）" stroke="none" stroke-width="1" fill="none" fill-rule="evenodd">
        <g id="MPP-SRA-C-1.申込詳細画面1" transform="translate(-29.000000, -193.000000)">
            <g id="Group-11" transform="translate(29.000000, 193.000000)">
                <polygon id="Fill-1" fill="#FFFFFF" points="1 1 1 19 14 19 14 5.37644278 9.77949608 1"></polygon>
                <path d="M0,0 L0,19 L15,19 L15,4.68408106 L10.1725377,0 L0,0 Z M1.33213515,1.29326676 L9.62041697,1.29326676 L13.6671459,5.21980322 L13.6671459,17.7067332 L1.33213515,17.7067332 L1.33213515,1.29326676 Z" id="Fill-2" fill="#0B63B0"></path>
                <polygon id="Fill-3" fill="#0B63B0" points="14 6 9 6 9 1 10.3058177 1 10.3058177 4.6873407 14 4.6873407"></polygon>
                <g id="Group-10" transform="translate(3.000000, 8.000000)" fill="#64B4E6">
                    <path d="M8.26518615,1.43266476 L0.734813847,1.43266476 C0.329196604,1.43266476 0,1.11174785 0,0.716332378 C0,0.320916905 0.329196604,0 0.734813847,0 L8.26518615,0 C8.6708034,0 9,0.320916905 9,0.716332378 C9,1.11174785 8.6708034,1.43266476 8.26518615,1.43266476" id="Fill-4"></path>
                    <path d="M8.26518615,4.21611748 L0.734813847,4.21611748 C0.329196604,4.21611748 0,3.89520057 0,3.4997851 C0,3.10436963 0.329196604,2.78345272 0.734813847,2.78345272 L8.26518615,2.78345272 C8.6708034,2.78345272 9,3.10436963 9,3.4997851 C9,3.89520057 8.6708034,4.21611748 8.26518615,4.21611748" id="Fill-6"></path>
                    <path d="M8.26518615,7 L0.734813847,7 C0.329196604,7 0,6.67908309 0,6.28366762 C0,5.88825215 0.329196604,5.56733524 0.734813847,5.56733524 L8.26518615,5.56733524 C8.6708034,5.56733524 9,5.88825215 9,6.28366762 C9,6.67908309 8.6708034,7 8.26518615,7" id="Fill-8"></path>
                </g>
            </g>
        </g>
    </g>
</svg>