<?xml version="1.0" encoding="UTF-8"?>
<svg width="34px" height="34px" viewBox="0 0 34 34" version="1.1" xmlns="http://www.w3.org/2000/svg" xmlns:xlink="http://www.w3.org/1999/xlink">
    <title>Group 20</title>
    <g id="Page-1" stroke="none" stroke-width="1" fill="none" fill-rule="evenodd">
        <g id="Group-20" fill="#FFFFFF">
            <path d="M1.1148236,11 C0.499116742,11 0,10.5014133 0,9.88512013 L0,1.11432465 C0,0.498586715 0.499116742,0 1.1148236,0 L9.8851764,0 C10.5008833,0 11,0.498586715 11,1.11432465 C11,1.73061781 10.5008833,2.22920452 9.8851764,2.22920452 L2.2296472,2.22920452 L2.2296472,9.88512013 C2.2296472,10.5014133 1.73053046,11 1.1148236,11" id="Fill-4"></path>
            <path d="M32.8851764,11 C32.2694695,11 31.7703528,10.5014133 31.7703528,9.88512013 L31.7703528,2.22920452 L24.1148236,2.22920452 C23.4991167,2.22920452 23,1.73061781 23,1.11432465 C23,0.498586715 23.4991167,0 24.1148236,0 L32.8851764,0 C33.5008833,0 34,0.498586715 34,1.11432465 L34,9.88512013 C34,10.5014133 33.5008833,11 32.8851764,11" id="Fill-6"></path>
            <path d="M32.8851764,34 L24.1148236,34 C23.4991167,34 23,33.5014133 23,32.8851201 C23,32.2693822 23.4991167,31.7702403 24.1148236,31.7702403 L31.7703528,31.7702403 L31.7703528,24.1143247 C31.7703528,23.4985867 32.2694695,23 32.8851764,23 C33.5008833,23 34,23.4985867 34,24.1143247 L34,32.8851201 C34,33.5014133 33.5008833,34 32.8851764,34" id="Fill-8"></path>
            <path d="M9.8851764,34 L1.1148236,34 C0.499116742,34 0,33.5014133 0,32.8851201 L0,24.1143247 C0,23.4985867 0.499116742,23 1.1148236,23 C1.73053046,23 2.22909201,23.4985867 2.22909201,24.1143247 L2.22909201,31.7702403 L9.8851764,31.7702403 C10.5008833,31.7702403 11,32.2693822 11,32.8851201 C11,33.5014133 10.5008833,34 9.8851764,34" id="Fill-10"></path>
            <path d="M8.49225151,18.5906774 C8.49225151,18.2424615 8.42167604,17.9721796 8.28052512,17.7798317 C8.1393742,17.5880366 7.8847103,17.3929251 7.51603988,17.1972609 C6.7253973,16.8728121 6.13957161,16.5146472 5.75905636,16.1244242 C5.37804758,15.7342013 5.18754318,15.1682122 5.18754318,14.4270098 C5.18754318,13.6940981 5.41012733,13.1060001 5.85578916,12.6632684 C6.30095746,12.2216422 6.88283486,12 7.60191491,12 C8.32050143,12 8.89991116,12.2492784 9.34014411,12.7478352 C9.77988353,13.2463919 10,13.8941841 10,14.6912117 L8.50310927,14.6912117 C8.50310927,14.2788798 8.42463725,13.9511147 8.26670615,13.7095744 C8.10976212,13.4669287 7.87878788,13.3453295 7.57526404,13.3453295 C7.28901392,13.3453295 7.06889744,13.4475834 6.91540815,13.6520911 C6.76142533,13.8565989 6.68443392,14.116379 6.68443392,14.4330897 C6.68443392,14.7260333 6.77129602,14.9631518 6.9445267,15.1449979 C7.11825091,15.3279494 7.42473596,15.5352208 7.86496891,15.7673647 C8.58355542,16.050912 9.11755996,16.4041024 9.46599546,16.8247252 C9.81492449,17.2442425 9.98914224,17.8295769 9.98914224,18.5790702 C9.98914224,19.3523307 9.77790939,19.9487195 9.35593722,20.3693423 C8.93445859,20.789965 8.3585036,21 7.62856579,21 C6.90257625,21 6.28269667,20.7601179 5.76991412,20.2792483 C5.25663804,19.7989314 5,19.0859178 5,18.1402076 L6.50182608,18.1402076 C6.50182608,18.6968003 6.59115586,19.0892342 6.77030895,19.3175091 C6.94896851,19.5463367 7.23521864,19.6601978 7.62856579,19.6601978 C7.92912842,19.6601978 8.14825782,19.5667874 8.285954,19.3777559 C8.42315665,19.1898299 8.49225151,18.9267334 8.49225151,18.5906774" id="Fill-12"></path>
            <path d="M15.9944762,18.1523675 C15.9909611,19.1091322 15.7745305,19.8232512 15.3451843,20.2941718 C14.9158381,20.7650924 14.2931606,21 13.4781561,21 C12.6812293,21 12.0690971,20.7308236 11.6417596,20.191918 C11.2139199,19.6530123 11,18.8587484 11,17.8102315 L11,15.1958484 C11,14.158386 11.2194436,13.366333 11.6578287,12.820242 C12.0962137,12.2730455 12.7033243,12 13.4781561,12 C14.3082254,12 14.9293964,12.2371185 15.3426735,12.7119081 C15.7549463,13.1866978 15.9743899,13.9140822 16,14.8957195 L14.477453,14.8957195 C14.4955308,14.3429958 14.4307522,13.9500092 14.2831174,13.718418 C14.1359847,13.4857213 13.8678317,13.3702021 13.4781561,13.3702021 C13.1472331,13.3702021 12.904188,13.5144629 12.7495229,13.8051956 C12.5948579,14.0959283 12.5175254,14.5552417 12.5175254,15.1836885 L12.5175254,17.8102315 C12.5175254,18.4585764 12.5903385,18.9250752 12.7359646,19.2091752 C12.8815908,19.4943806 13.1286532,19.6364306 13.4781561,19.6364306 C13.8422216,19.6364306 14.1033444,19.5247804 14.2615246,19.3025855 C14.4197047,19.0803906 14.490007,18.6968003 14.4714271,18.1523675 L15.9944762,18.1523675 Z" id="Fill-14"></path>
            <path d="M19.2762374,17.6745435 L20.7185799,17.6745435 L20.0028505,14.2871043 L19.9862659,14.2871043 L19.2762374,17.6745435 Z M21.0114019,19.0773994 L18.9834154,19.0773994 L18.5833117,21 L17,21 L19.1912413,12 L20.8201607,12 L23,21 L21.4223892,21 L21.0114019,19.0773994 Z" id="Fill-16"></path>
            <polygon id="Fill-18" points="29 21 27.2855522 21 24.7388427 15.3192014 24.720121 15.3192014 24.720121 21 23 21 23 12 24.720121 12 27.2673979 17.6745435 27.2855522 17.6745435 27.2855522 12 29 12"></polygon>
        </g>
    </g>
</svg>