<?xml version="1.0" encoding="UTF-8"?>
<svg width="19px" height="19px" viewBox="0 0 19 19" version="1.1" xmlns="http://www.w3.org/2000/svg" xmlns:xlink="http://www.w3.org/1999/xlink">
    <title>Group 9</title>
    <g id="処方箋送信（共通）" stroke="none" stroke-width="1" fill="none" fill-rule="evenodd">
        <g id="必要事項入力画面1" transform="translate(-28.000000, -845.000000)">
            <g id="Group-9" transform="translate(28.000000, 845.000000)">
                <path d="M0.730769231,9.5 C0.730769231,4.65719231 4.65719231,0.730769231 9.5,0.730769231 C14.3428077,0.730769231 18.2692308,4.65719231 18.2692308,9.5 C18.2692308,14.3428077 14.3428077,18.2692308 9.5,18.2692308 C4.65719231,18.2692308 0.730769231,14.3428077 0.730769231,9.5" id="Fill-1" fill="#FFFFFF"></path>
                <path d="M9.5,1.46153846 C5.06788462,1.46153846 1.46153846,5.06788462 1.46153846,9.5 C1.46153846,13.9321154 5.06788462,17.5384615 9.5,17.5384615 C13.9321154,17.5384615 17.5384615,13.9321154 17.5384615,9.5 C17.5384615,5.06788462 13.9321154,1.46153846 9.5,1.46153846 M9.5,19 C4.26184615,19 0,14.7381538 0,9.5 C0,4.26184615 4.26184615,0 9.5,0 C14.7381538,0 19,4.26184615 19,9.5 C19,14.7381538 14.7381538,19 9.5,19" id="Fill-3" fill="#0B63B0"></path>
                <polyline id="Fill-5" fill="#FFFFFF" points="9.35764615 5.18678077 9.35764615 10.1611269 11.7757615 11.9149731"></polyline>
                <path d="M11.7743731,13.0107615 C11.5514885,13.0107615 11.3264115,12.9428 11.1320269,12.8017615 L8.71464231,11.0486462 C8.42964231,10.8425692 8.26156538,10.5122615 8.26156538,10.1614923 L8.26156538,5.18641538 C8.26156538,4.58133846 8.75191154,4.09026154 9.35771923,4.09026154 C9.96279615,4.09026154 10.4538731,4.58133846 10.4538731,5.18641538 L10.4538731,9.60172308 L12.4189115,11.0274538 C12.9092577,11.3826077 13.0181423,12.0680692 12.6629885,12.5576846 C12.4481423,12.8536462 12.11345,13.0107615 11.7743731,13.0107615" id="Fill-7" fill="#64B4E6"></path>
            </g>
        </g>
    </g>
</svg>