<?xml version="1.0" encoding="UTF-8"?>
<svg width="52px" height="25px" viewBox="0 0 52 25" version="1.1" xmlns="http://www.w3.org/2000/svg" xmlns:xlink="http://www.w3.org/1999/xlink">
    <title>Group 11</title>
    <defs>
        <polygon id="path-1" points="3.55271368e-15 0 32.2139 0 32.2139 19.6585 3.55271368e-15 19.6585"></polygon>
        <polygon id="path-3" points="0 0 14.1002706 0 14.1002706 5.13361787 0 5.13361787"></polygon>
    </defs>
    <g id="PCP" stroke="none" stroke-width="1" fill="none" fill-rule="evenodd">
        <g id="MPP-A-1.ホーム画面（登録あり：薬局選択中）" transform="translate(-162.000000, -213.000000)">
            <g id="Group-11" transform="translate(162.000000, 213.000000)">
                <g id="Group-3" transform="translate(18.924100, 0.000000)">
                    <mask id="mask-2" fill="white">
                        <use xlink:href="#path-1"></use>
                    </mask>
                    <g id="Clip-2"></g>
                    <path d="M11.9102,18.1755 L9.79019998,6.7905 L29.9112,1.4925 L11.9102,18.1755 Z M27.7332,1.0315 L9.30119998,5.8855 L2.16319998,1.2385 L27.7332,1.0315 Z M32.1922,0.6445 C32.1972,0.6265 32.2022,0.6095 32.2062,0.5905 C32.2082,0.5785 32.2062,0.5695 32.2082,0.5565 C32.2112,0.5275 32.2143619,0.4975 32.2122,0.4665 C32.2112,0.4555 32.2152,0.4455 32.2143619,0.4335 C32.2112,0.4125 32.2002,0.3955 32.1952,0.3755 C32.1902,0.3575 32.1922,0.3375 32.1842,0.3195 C32.1812,0.3085 32.1722,0.3015 32.1672,0.2915 C32.1632,0.2805 32.1612,0.2695 32.1562,0.2595 L32.1562,0.2585 C32.1452,0.2385 32.1292,0.2255 32.1162,0.2075 C32.1002,0.1865 32.0852,0.1645 32.0672,0.1465 C32.0612,0.1405 32.0562,0.1315 32.0502,0.1265 C32.0392,0.1165 32.0252,0.1125 32.0142,0.1035 C32.0092,0.0995 32.0022,0.0965 31.9972,0.0925 C31.9742,0.0765 31.9522,0.0595 31.9272,0.0475 C31.9192,0.0435 31.9122,0.0405 31.9052,0.0375 C31.8882,0.0305 31.8692,0.0295 31.8512,0.0245 C31.8492,0.0245 31.8482,0.0235 31.8462,0.0235 C31.8192,0.0155 31.7922,0.0045 31.7642,0.0025 C31.7542,0.0015 31.7452,0.0035 31.7362,0.0025 C31.7302,0.0025 31.7242,-0.0005 31.7182,-0.0005 L31.7142,-0.0005 L0.496199981,0.2525 C0.275199981,0.2545 0.0821999812,0.4005 0.0201999812,0.6125 C-0.0418000188,0.8235 0.0421999812,1.0515 0.227199981,1.1715 L8.53519998,6.5805 L3.62719998,14.7155 C3.51219998,14.9075 3.53819998,15.1545 3.69119998,15.3175 C3.78819998,15.4195 3.92119998,15.4745 4.05619998,15.4745 C4.13519998,15.4745 4.21419998,15.4555 4.28719998,15.4175 L9.83819998,12.5135 L11.0932,19.2505 C11.1262,19.4295 11.2542,19.5755 11.4272,19.6335 C11.4792,19.6515 11.5322,19.6585 11.5842,19.6585 C11.7082,19.6585 11.8302,19.6125 11.9242,19.5265 L32.0582,0.8665 C32.0622,0.8635 32.0622,0.8565 32.0662,0.8515 C32.0832,0.8345 32.0972,0.8195 32.1122,0.8005 C32.1292,0.7775 32.1432,0.7515 32.1572,0.7255 C32.1702,0.6985 32.1832,0.6735 32.1922,0.6445 L32.1922,0.6445 Z" id="Fill-1" fill="#468CD2" mask="url(#mask-2)"></path>
                </g>
                <path d="M4.6073,12.0378 C4.6573,12.0378 4.7083,12.0298 4.7573,12.0148 L17.8573,7.8798 C18.1213,7.7968 18.2673,7.5168 18.1843,7.2528 C18.1013,6.9888 17.8183,6.8448 17.5563,6.9268 L4.4573,11.0608 C4.1933,11.1438 4.0473,11.4248 4.1303,11.6878 C4.1973,11.9018 4.3953,12.0378 4.6073,12.0378" id="Fill-4" fill="#468CD2"></path>
                <path d="M23.6654,19.4167 L10.5654,23.5527 C10.3024,23.6357 10.1564,23.9167 10.2394,24.1797 C10.3064,24.3937 10.5034,24.5287 10.7164,24.5287 C10.7664,24.5287 10.8164,24.5207 10.8664,24.5057 L23.9664,20.3697 C24.2294,20.2867 24.3754,20.0067 24.2924,19.7427 C24.2094,19.4787 23.9284,19.3357 23.6654,19.4167" id="Fill-6" fill="#468CD2"></path>
                <g id="Group-10" transform="translate(0.000000, 17.024182)">
                    <mask id="mask-4" fill="white">
                        <use xlink:href="#path-3"></use>
                    </mask>
                    <g id="Clip-9"></g>
                    <path d="M14.077,0.348617869 C13.994,0.0846178689 13.713,-0.0583821311 13.45,0.0226178689 L0.35,4.15761787 C0.086,4.24061787 -0.06,4.52061787 0.023,4.78461787 C0.091,4.99761787 0.288,5.13361787 0.5,5.13361787 C0.55,5.13361787 0.601,5.12561787 0.651,5.11061787 L13.75,0.975617869 C14.014,0.892617869 14.16,0.612617869 14.077,0.348617869" id="Fill-8" fill="#468CD2" mask="url(#mask-4)"></path>
                </g>
            </g>
        </g>
    </g>
</svg>