<?xml version="1.0" encoding="UTF-8"?>
<svg width="20px" height="35px" viewBox="0 0 20 35" version="1.1" xmlns="http://www.w3.org/2000/svg" xmlns:xlink="http://www.w3.org/1999/xlink">
    <title>Pin</title>
    <defs>
        <path d="M4.5745,0.756 L2.2685,3.062 L0.7575,4.574 C-0.2525,5.582 -0.2525,7.223 0.7575,8.232 L0.7575,8.232 C1.2455,8.721 1.8955,8.991 2.5865,8.991 L2.5865,8.991 C3.2785,8.991 3.9285,8.721 4.4165,8.232 L4.4165,8.232 L5.9285,6.72 L8.2345,4.415 C9.2435,3.406 9.2435,1.765 8.2345,0.756 L8.2345,0.756 C7.7305,0.252 7.0675,0 6.4055,0 L6.4055,0 C5.7415,0 5.0795,0.252 4.5745,0.756 L4.5745,0.756 Z M1.5505,7.439 C0.9795,6.868 0.9795,5.938 1.5505,5.367 L1.5505,5.367 L3.0635,3.855 L5.1355,5.927 L3.6225,7.439 C3.3465,7.715 2.9775,7.868 2.5865,7.868 L2.5865,7.868 C2.1955,7.868 1.8275,7.715 1.5505,7.439 L1.5505,7.439 Z" id="path-1"></path>
    </defs>
    <g id="Page-1" stroke="none" stroke-width="1" fill="none" fill-rule="evenodd">
        <g id="Artboard" transform="translate(-223.000000, -194.000000)">
            <g id="Pin" transform="translate(223.000000, 194.000000)">
                <g id="Group-5">
                    <path d="M10,0 C4.486,0 0,4.486 0,10 C0,19.848 6.304,16.82 9.623,33.081 C9.623,33.081 9.841,34.326 10,34.326 C10.159,34.326 10.377,33.081 10.377,33.081 C13.696,16.82 20,19.848 20,10 C20,4.486 15.514,0 10,0" id="Fill-1" fill="#F08D29"></path>
                    <path d="M10,17 C6.14,17 3,13.859 3,10 C3,6.141 6.14,3 10,3 C13.86,3 17,6.141 17,10 C17,13.859 13.86,17 10,17" id="Fill-3" fill="#FFFFFF"></path>
                </g>
                <g id="Group-8" transform="translate(5.504100, 5.505100)">
                    <mask id="mask-2" fill="white">
                        <use xlink:href="#path-1"></use>
                    </mask>
                    <g id="Clip-7"></g>
                    <polygon id="Fill-6" fill="#F08D29" mask="url(#mask-2)" points="-0.6915 9.682 9.6825 9.682 9.6825 -0.692 -0.6915 -0.692"></polygon>
                </g>
            </g>
        </g>
    </g>
</svg>