<?xml version="1.0" encoding="UTF-8"?>
<svg width="21px" height="17px" viewBox="0 0 21 17" version="1.1" xmlns="http://www.w3.org/2000/svg" xmlns:xlink="http://www.w3.org/1999/xlink">
    <title>Group 12</title>
    <defs>
        <polygon id="path-1" points="0 0 21 0 21 17 0 17"></polygon>
    </defs>
    <g id="処方箋送信（共通）" stroke="none" stroke-width="1" fill="none" fill-rule="evenodd">
        <g id="必要事項入力画面1" transform="translate(-27.000000, -1232.000000)">
            <g id="Group-12" transform="translate(27.000000, 1232.000000)">
                <path d="M10,0 C5.02970076,0 1,3.21072727 1,7.17064761 C1,9.32071951 2.188477,11.2498215 4.0703439,12.5644169 L4.06967396,12.5644169 C4.54533274,12.9004314 4.54533274,13.4209382 4.04890576,13.9407435 C3.55180884,14.4612503 3.15118356,14.8042797 2.81219294,15.1255629 C2.3626619,15.5513683 2.72108084,16.1883227 3.28584189,15.9470096 C3.72130415,15.7618158 5.71907101,14.9066975 6.73604288,14.5349069 C7.75301474,14.1631163 8.6788745,14.2641311 8.6788745,14.2641311 L8.6788745,14.2634296 C9.10964716,14.3146385 9.5511389,14.3405937 10,14.3405937 C14.9702992,14.3405937 19,11.130568 19,7.17064761 C19,3.21072727 14.9702992,0 10,0" id="Fill-1" fill="#FFFFFF"></path>
                <g id="Group-5">
                    <mask id="mask-2" fill="white">
                        <use xlink:href="#path-1"></use>
                    </mask>
                    <g id="Clip-4"></g>
                    <path d="M10.5,1.37058088 C5.51260912,1.37058088 1.45489816,4.20562744 1.45489816,7.69032934 C1.45489816,9.47482565 2.55189137,11.1873665 4.46508244,12.3893659 C4.87681862,12.6518321 5.12487876,13.0205184 5.16634336,13.4316927 C5.19907856,13.755835 5.11978661,14.2540412 4.55237633,14.7885677 C4.40324927,14.9290523 4.2613967,15.0572016 4.12681862,15.1750716 C4.97065955,14.8564115 6.03200776,14.4623695 6.71653734,14.2375942 C7.96047527,13.8277905 9.09311348,13.9333253 9.14039767,13.9381223 C9.592871,13.9860926 10.0482541,14.0093925 10.5,14.0093925 C15.4873909,14.0093925 19.5451018,11.1750312 19.5451018,7.69032934 C19.5451018,4.20562744 15.4873909,1.37058088 10.5,1.37058088 M2.95053346,17 C2.53516004,17 2.15252182,16.8156569 1.92919496,16.4805498 C1.60548012,15.9967348 1.72041707,15.3683235 2.20780795,14.9530374 L2.54316198,14.6734389 C2.82686712,14.4383843 3.14912706,14.1724916 3.52376334,13.8195671 C3.66416101,13.687306 3.70344326,13.6009594 3.71362755,13.5687508 C3.70562561,13.564639 3.68671193,13.5488773 3.65397672,13.5276333 C1.33268671,12.06865 0,9.94013786 0,7.69032934 C0,3.44975209 4.71023278,0 10.5,0 C16.2897672,0 21,3.44975209 21,7.69032934 C21,11.9302213 16.2897672,15.3799734 10.5,15.3799734 C9.99660524,15.3799734 9.48884578,15.3539324 8.99272551,15.3018503 C8.91779825,15.2943121 8.0885063,15.2381183 7.19592629,15.5314226 C6.5128516,15.7561978 5.2929195,16.2050631 3.57032008,16.8656831 L3.48302619,16.8992623 C3.30625606,16.9671061 3.12512124,17 2.95053346,17" id="Fill-3" fill="#0B63B0" mask="url(#mask-2)"></path>
                </g>
                <path d="M8,7.5 C8,8.328 7.328,9 6.5,9 C5.672,9 5,8.328 5,7.5 C5,6.672 5.672,6 6.5,6 C7.328,6 8,6.672 8,7.5" id="Fill-6" fill="#64B4E6"></path>
                <path d="M12,7.5 C12,8.32875 11.328,9 10.5,9 C9.672,9 9,8.32875 9,7.5 C9,6.672 9.672,6 10.5,6 C11.328,6 12,6.672 12,7.5" id="Fill-8" fill="#64B4E6"></path>
                <path d="M16,7.5 C16,8.32875 15.328,9 14.5,9 C13.67125,9 13,8.32875 13,7.5 C13,6.672 13.67125,6 14.5,6 C15.328,6 16,6.672 16,7.5" id="Fill-10" fill="#64B4E6"></path>
            </g>
        </g>
    </g>
</svg>