<?xml version="1.0" encoding="UTF-8"?>
<svg width="32px" height="32px" viewBox="0 0 32 32" version="1.1" xmlns="http://www.w3.org/2000/svg" xmlns:xlink="http://www.w3.org/1999/xlink">
    <title>Group 7</title>
    <g id="PCP" stroke="none" stroke-width="1" fill="none" fill-rule="evenodd">
        <g id="PP-A-5.処方せん送信内容入力画面3" transform="translate(-311.000000, -1834.000000)">
            <g id="Group-7" transform="translate(311.000000, 1834.000000)">
                <path d="M32,16.000077 C32,24.8364849 24.8365193,32 16,32 C7.16348069,32 0,24.8364849 0,16.000077 C0,7.16351515 7.16348069,0 16,0 C24.8365193,0 32,7.16351515 32,16.000077" id="Fill-1" fill="#468CD2"></path>
                <path d="M14.0394397,26 L18.167711,26 L18.167711,22.1182191 L14.0394397,22.1182191 L14.0394397,26 Z M11.7476594,7.02082676 C12.8335422,6.34051464 14.1683008,6 15.7514928,6 C17.8315518,6 19.5598231,6.48366276 20.9360118,7.4507014 C22.3119056,8.41774004 23,9.8506555 23,11.7490175 C23,12.9129923 22.7017324,13.8935139 22.1050498,14.6904386 C21.7562108,15.1739579 21.0861039,15.7918758 20.0945816,16.5440489 L19.117066,17.282739 C18.584519,17.6857913 18.2311095,18.1558278 18.05669,18.6931352 C17.9465536,19.0335064 17.8866937,19.5619209 17.8777,20.2780917 L14.1361592,20.2780917 C14.1910063,18.7648527 14.3381496,17.7193551 14.5767048,17.1417424 C14.8152599,16.5641298 15.4300774,15.8994521 16.4211574,15.1469922 L17.426244,14.3814797 C17.7565057,14.1396483 18.0226318,13.8757279 18.2246222,13.5891448 C18.591596,13.0967326 18.7751567,12.5548352 18.7751567,11.9637396 C18.7751567,11.2834275 18.5709547,10.6633581 18.1622558,10.1035314 C17.7537044,9.54399151 17.0075194,9.26400643 15.924143,9.26400643 C14.8587541,9.26400643 14.1032805,9.60882412 13.658017,10.2983161 C13.2129008,10.987808 12.9901216,11.7041223 12.9901216,12.4474024 L9,12.4474024 C9.1105787,9.89526378 10.0261703,8.0866921 11.7476594,7.02082676 L11.7476594,7.02082676 Z" id="Fill-5" fill="#FFFFFF"></path>
            </g>
        </g>
    </g>
</svg>