<?xml version="1.0" encoding="UTF-8"?>
<svg width="19px" height="19px" viewBox="0 0 19 19" version="1.1" xmlns="http://www.w3.org/2000/svg" xmlns:xlink="http://www.w3.org/1999/xlink">
    <title>Group 9</title>
    <g id="処方箋送信（共通）" stroke="none" stroke-width="1" fill="none" fill-rule="evenodd">
        <g id="必要事項入力画面1" transform="translate(-27.000000, -287.000000)">
            <g id="Group-9" transform="translate(27.000000, 287.000000)">
                <path d="M18,9 C18,13.97025 13.97025,18 9,18 C4.02975,18 0,13.97025 0,9 C0,4.02975 4.02975,0 9,0 C13.97025,0 18,4.02975 18,9" id="Fill-1" fill="#FFFFFF"></path>
                <path d="M13,7.5 C13,9.43278104 11.432781,11 9.5,11 C7.56721896,11 6,9.43278104 6,7.5 C6,5.56721896 7.56721896,4 9.5,4 C11.432781,4 13,5.56721896 13,7.5" id="Fill-3" fill="#64B4E6"></path>
                <path d="M9,12 C5.79334942,12 3.06472254,12.986711 2,14.3713263 C3.61030106,16.5732175 6.14213784,18 9,18 C11.8578622,18 14.3904332,16.5732175 16,14.3713263 C14.9352775,12.986711 12.2073849,12 9,12" id="Fill-5" fill="#64B4E6"></path>
                <path d="M9.5,1.46153846 C5.06788462,1.46153846 1.46153846,5.06788462 1.46153846,9.5 C1.46153846,13.9321154 5.06788462,17.5384615 9.5,17.5384615 C13.9321154,17.5384615 17.5384615,13.9321154 17.5384615,9.5 C17.5384615,5.06788462 13.9321154,1.46153846 9.5,1.46153846 M9.5,19 C4.26184615,19 0,14.7381538 0,9.5 C0,4.26184615 4.26184615,0 9.5,0 C14.7381538,0 19,4.26184615 19,9.5 C19,14.7381538 14.7381538,19 9.5,19" id="Fill-7" fill="#0B63B0"></path>
            </g>
        </g>
    </g>
</svg>