<?xml version="1.0" encoding="UTF-8"?>
<svg width="14px" height="14px" viewBox="0 0 14 14" version="1.1" xmlns="http://www.w3.org/2000/svg" xmlns:xlink="http://www.w3.org/1999/xlink">
    <title>Fill 4</title>
    <g id="PCP" stroke="none" stroke-width="1" fill="none" fill-rule="evenodd">
        <g id="MPP-A-1.ホーム画面（登録あり：薬局選択中）-Copy-2" transform="translate(-280.000000, -54.000000)" fill="#468CD2">
            <path d="M291.667408,60.1482521 L289.480771,62.3345715 L286.484828,59.3385242 L288.671466,57.1522048 C289.07179,56.7524794 289.603573,56.5317921 290.169437,56.5317921 C290.735301,56.5317921 291.267084,56.7524794 291.667408,57.1522048 C292.493484,57.9781597 292.493484,59.3222972 291.667408,60.1482521 M290.169437,54.9090909 C289.169708,54.9090909 288.230027,55.2985392 287.524049,56.0049551 L285.337411,58.1912745 L282.003357,61.5248436 C280.544336,62.983111 280.544336,65.356582 282.003357,66.8153903 C282.732596,67.544524 283.690671,67.9090909 284.648745,67.9090909 C285.606819,67.9090909 286.564893,67.544524 287.294674,66.8153903 L290.628728,63.4818212 L290.628728,63.4818212 L292.814825,61.2955018 C294.273846,59.8372344 294.273846,57.4637635 292.814825,56.0049551 C292.108306,55.2985392 291.169167,54.9090909 290.169437,54.9090909" id="Fill-4"></path>
        </g>
    </g>
</svg>