<?xml version="1.0" encoding="UTF-8"?>
<svg width="24px" height="42px" viewBox="0 0 24 42" version="1.1" xmlns="http://www.w3.org/2000/svg" xmlns:xlink="http://www.w3.org/1999/xlink">
    <title>Fill 4</title>
    <g id="薬局" stroke="none" stroke-width="1" fill="none" fill-rule="evenodd">
        <g id="MPP-B-3-4-2.(かかりつけ薬局)-利用薬局追加画面_OEM" transform="translate(-51.000000, -291.000000)" fill="#FFFFFF">
            <g id="Group-6" transform="translate(33.000000, 282.000000)">
                <path d="M30,28.2832672 C26.2953503,28.2832672 23.2918217,25.2562663 23.2918217,21.5223072 C23.2918217,17.788348 26.2953503,14.7613471 30,14.7613471 C33.7046497,14.7613471 36.7078903,17.788348 36.7078903,21.5223072 C36.7078903,25.2562663 33.7046497,28.2832672 30,28.2832672 M30,9 C23.4715668,9 18,13.4356915 18,21.5028549 C18,27.1077132 21.4010418,30.9578051 24.4670779,35.8818349 C27.5336902,40.8058647 28.7550349,44.9178361 29.0407835,47.6678603 C29.3268201,50.4178844 29.6644183,51 30,51 C30.3355817,51 30.6731799,50.4178844 30.9592165,47.6678603 C31.2449651,44.9178361 32.4663098,40.8058647 35.532634,35.8818349 C38.5989582,30.9578051 42,27.1077132 42,21.5028549 C42,13.4356915 36.5281452,9 30,9" id="Fill-4"></path>
            </g>
        </g>
    </g>
</svg>