<?xml version="1.0" encoding="UTF-8"?>
<svg width="90px" height="64px" viewBox="0 0 90 64" version="1.1" xmlns="http://www.w3.org/2000/svg" xmlns:xlink="http://www.w3.org/1999/xlink">
    <title>Group 13</title>
    <g id="PCP" stroke="none" stroke-width="1" fill="none" fill-rule="evenodd">
        <g id="Reg-5.家族登録選択画面" transform="translate(-143.000000, -269.000000)">
            <g id="Group-13" transform="translate(143.000000, 269.000000)">
                <path d="M90,64 C90,64 89.4010855,47.3193187 81.9932566,37.0256859 C76.0855263,28.8161121 71.6272697,25.0789968 61.2828947,24.4181261 C52.1052632,23.831728 45.8881579,28.8161121 45.8881579,28.8161121 C45.8881579,28.8161121 36.4144737,20.8997373 23.7896053,23.5385289 C10.9033224,26.2321487 0,43.7692644 0,64 L6.30592105,64 C6.30592105,64 6.87878289,51.6856392 10.8917763,46.7012551 C11.4652303,52.8584355 11.4652303,64 11.4652303,64 L79.126875,64 L78.8592434,48.1672504 C78.8592434,48.1672504 82.8343421,56.0836252 82.5477632,64 L90,64 Z" id="Fill-1" fill="#468CD2"></path>
                <path d="M54,13.5 C54,18.7466719 58.2533281,23 63.5,23 C68.7466719,23 73,18.7466719 73,13.5 C73,8.25332812 68.7466719,4 63.5,4 C58.2533281,4 54,8.25332812 54,13.5" id="Fill-3" fill="#468CD2"></path>
                <path d="M19,9.5 C19,14.7466719 23.2533281,19 28.5,19 C33.7466719,19 38,14.7466719 38,9.5 C38,4.25332812 33.7466719,0 28.5,0 C23.2533281,0 19,4.25332812 19,9.5" id="Fill-5" fill="#468CD2"></path>
                <path d="M37,42.5 C37,46.6420387 40.3577313,50 44.5001482,50 C48.6422687,50 52,46.6420387 52,42.5 C52,38.357665 48.6422687,35 44.5001482,35 C40.3577313,35 37,38.357665 37,42.5" id="Fill-7" fill="#FFFFFF"></path>
                <path d="M53.620312,64 L53.620312,55.9121556 L64.2109761,45.128363 C68.3295676,40.9346659 64.6522537,36.2916441 60.0923845,40.9346659 L50.3842757,50.8198091 L43.323833,50.8198091 L42,64" id="Fill-9" fill="#FFFFFF"></path>
                <path d="M36.379688,64 L36.379688,55.9121556 L25.7890239,45.128363 C21.6704324,40.9346659 25.3477463,36.2916441 29.9076155,40.9346659 L39.6157243,50.8198091 L46.676167,50.8198091 L48,64" id="Fill-11" fill="#FFFFFF"></path>
            </g>
        </g>
    </g>
</svg>